<?xml version="1.0" encoding="UTF-8"?>
<svg xmlns="http://www.w3.org/2000/svg" xmlns:xlink="http://www.w3.org/1999/xlink" width="375pt" height="374.999991pt" viewBox="0 0 375 374.999991" version="1.2">
<defs>
<clipPath id="clip1">
  <path d="M 64 47.359375 L 309 47.359375 L 309 327.859375 L 64 327.859375 Z M 64 47.359375 "/>
</clipPath>
<clipPath id="clip2">
  <path d="M 64 47.359375 L 187 47.359375 L 187 327.859375 L 64 327.859375 Z M 64 47.359375 "/>
</clipPath>
</defs>
<g id="surface1">
<path style=" stroke:none;fill-rule:nonzero;fill:rgb(0%,0%,0%);fill-opacity:1;" d="M 187.5 5.566406 C 184.523438 5.566406 181.546875 5.640625 178.574219 5.785156 C 175.597656 5.933594 172.628906 6.152344 169.667969 6.445312 C 166.703125 6.734375 163.75 7.101562 160.804688 7.535156 C 157.859375 7.972656 154.925781 8.484375 152.007812 9.0625 C 149.085938 9.644531 146.183594 10.296875 143.292969 11.019531 C 140.40625 11.742188 137.539062 12.539062 134.6875 13.402344 C 131.839844 14.265625 129.011719 15.199219 126.207031 16.203125 C 123.40625 17.207031 120.628906 18.277344 117.878906 19.417969 C 115.125 20.554688 112.40625 21.761719 109.714844 23.035156 C 107.023438 24.308594 104.363281 25.648438 101.738281 27.050781 C 99.113281 28.453125 96.523438 29.921875 93.96875 31.453125 C 91.414062 32.980469 88.898438 34.574219 86.425781 36.230469 C 83.949219 37.882812 81.515625 39.597656 79.125 41.371094 C 76.730469 43.144531 74.386719 44.976562 72.082031 46.863281 C 69.78125 48.753906 67.527344 50.699219 65.320312 52.695312 C 63.117188 54.695312 60.960938 56.75 58.855469 58.855469 C 56.75 60.960938 54.695312 63.117188 52.695312 65.320312 C 50.699219 67.527344 48.753906 69.78125 46.863281 72.082031 C 44.976562 74.386719 43.144531 76.730469 41.371094 79.125 C 39.597656 81.515625 37.882812 83.949219 36.230469 86.425781 C 34.574219 88.898438 32.980469 91.414062 31.453125 93.96875 C 29.921875 96.523438 28.453125 99.113281 27.050781 101.738281 C 25.648438 104.363281 24.308594 107.023438 23.035156 109.714844 C 21.761719 112.40625 20.554688 115.125 19.417969 117.878906 C 18.277344 120.628906 17.207031 123.40625 16.203125 126.207031 C 15.199219 129.011719 14.265625 131.839844 13.402344 134.6875 C 12.539062 137.539062 11.742188 140.40625 11.019531 143.292969 C 10.296875 146.183594 9.644531 149.085938 9.0625 152.007812 C 8.484375 154.925781 7.972656 157.859375 7.535156 160.804688 C 7.101562 163.75 6.734375 166.703125 6.445312 169.667969 C 6.152344 172.628906 5.933594 175.597656 5.785156 178.574219 C 5.640625 181.546875 5.566406 184.523438 5.566406 187.5 C 5.566406 190.476562 5.640625 193.453125 5.785156 196.425781 C 5.933594 199.402344 6.152344 202.371094 6.445312 205.332031 C 6.734375 208.296875 7.101562 211.25 7.535156 214.195312 C 7.972656 217.140625 8.484375 220.074219 9.0625 222.992188 C 9.644531 225.914062 10.296875 228.816406 11.019531 231.707031 C 11.742188 234.59375 12.539062 237.460938 13.402344 240.3125 C 14.265625 243.160156 15.199219 245.988281 16.203125 248.792969 C 17.207031 251.59375 18.277344 254.371094 19.417969 257.121094 C 20.554688 259.875 21.761719 262.59375 23.035156 265.285156 C 24.308594 267.976562 25.648438 270.636719 27.050781 273.261719 C 28.453125 275.886719 29.921875 278.476562 31.453125 281.03125 C 32.980469 283.585938 34.574219 286.101562 36.230469 288.574219 C 37.882812 291.050781 39.597656 293.484375 41.371094 295.875 C 43.144531 298.269531 44.976562 300.613281 46.863281 302.917969 C 48.753906 305.21875 50.699219 307.472656 52.695312 309.679688 C 54.695312 311.882812 56.75 314.039062 58.855469 316.144531 C 60.960938 318.25 63.117188 320.304688 65.320312 322.304688 C 67.527344 324.300781 69.78125 326.246094 72.082031 328.136719 C 74.386719 330.023438 76.730469 331.855469 79.125 333.628906 C 81.515625 335.402344 83.949219 337.117188 86.425781 338.769531 C 88.898438 340.425781 91.414062 342.019531 93.96875 343.546875 C 96.523438 345.078125 99.113281 346.546875 101.738281 347.949219 C 104.363281 349.351562 107.023438 350.691406 109.714844 351.964844 C 112.40625 353.238281 115.125 354.445312 117.878906 355.582031 C 120.628906 356.722656 123.40625 357.792969 126.207031 358.796875 C 129.011719 359.800781 131.839844 360.734375 134.6875 361.597656 C 137.539062 362.460938 140.40625 363.257812 143.292969 363.980469 C 146.183594 364.703125 149.085938 365.355469 152.007812 365.9375 C 154.925781 366.515625 157.859375 367.027344 160.804688 367.464844 C 163.75 367.898438 166.703125 368.265625 169.667969 368.554688 C 172.628906 368.847656 175.597656 369.066406 178.574219 369.214844 C 181.546875 369.359375 184.523438 369.433594 187.5 369.433594 C 190.476562 369.433594 193.453125 369.359375 196.425781 369.214844 C 199.402344 369.066406 202.371094 368.847656 205.332031 368.554688 C 208.296875 368.265625 211.25 367.898438 214.195312 367.464844 C 217.140625 367.027344 220.074219 366.515625 222.992188 365.9375 C 225.914062 365.355469 228.816406 364.703125 231.707031 363.980469 C 234.59375 363.257812 237.460938 362.460938 240.3125 361.597656 C 243.160156 360.734375 245.988281 359.800781 248.792969 358.796875 C 251.59375 357.792969 254.371094 356.722656 257.121094 355.582031 C 259.875 354.445312 262.59375 353.238281 265.285156 351.964844 C 267.976562 350.691406 270.636719 349.351562 273.261719 347.949219 C 275.886719 346.546875 278.476562 345.078125 281.03125 343.546875 C 283.585938 342.019531 286.101562 340.425781 288.574219 338.769531 C 291.050781 337.117188 293.484375 335.402344 295.875 333.628906 C 298.269531 331.855469 300.613281 330.023438 302.917969 328.136719 C 305.21875 326.246094 307.472656 324.300781 309.679688 322.304688 C 311.882812 320.304688 314.039062 318.25 316.144531 316.144531 C 318.25 314.039062 320.304688 311.882812 322.304688 309.679688 C 324.300781 307.472656 326.246094 305.21875 328.136719 302.917969 C 330.023438 300.613281 331.855469 298.269531 333.628906 295.875 C 335.402344 293.484375 337.117188 291.050781 338.769531 288.574219 C 340.425781 286.101562 342.019531 283.585938 343.546875 281.03125 C 345.078125 278.476562 346.546875 275.886719 347.949219 273.261719 C 349.351562 270.636719 350.691406 267.976562 351.964844 265.285156 C 353.238281 262.59375 354.445312 259.875 355.582031 257.121094 C 356.722656 254.371094 357.792969 251.59375 358.796875 248.792969 C 359.800781 245.988281 360.734375 243.160156 361.597656 240.3125 C 362.460938 237.460938 363.257812 234.59375 363.980469 231.707031 C 364.703125 228.816406 365.355469 225.914062 365.9375 222.992188 C 366.515625 220.074219 367.027344 217.140625 367.464844 214.195312 C 367.898438 211.25 368.265625 208.296875 368.554688 205.332031 C 368.847656 202.371094 369.066406 199.402344 369.214844 196.425781 C 369.359375 193.453125 369.433594 190.476562 369.433594 187.5 C 369.433594 184.523438 369.359375 181.546875 369.214844 178.574219 C 369.066406 175.597656 368.847656 172.628906 368.554688 169.667969 C 368.265625 166.703125 367.898438 163.75 367.464844 160.804688 C 367.027344 157.859375 366.515625 154.925781 365.9375 152.007812 C 365.355469 149.085938 364.703125 146.183594 363.980469 143.292969 C 363.257812 140.40625 362.460938 137.539062 361.597656 134.6875 C 360.734375 131.839844 359.800781 129.011719 358.796875 126.207031 C 357.792969 123.40625 356.722656 120.628906 355.582031 117.878906 C 354.445312 115.125 353.238281 112.40625 351.964844 109.714844 C 350.691406 107.023438 349.351562 104.363281 347.949219 101.738281 C 346.546875 99.113281 345.078125 96.523438 343.546875 93.96875 C 342.019531 91.414062 340.425781 88.898438 338.769531 86.425781 C 337.117188 83.949219 335.402344 81.515625 333.628906 79.125 C 331.855469 76.730469 330.023438 74.386719 328.136719 72.082031 C 326.246094 69.78125 324.300781 67.527344 322.304688 65.320312 C 320.304688 63.117188 318.25 60.960938 316.144531 58.855469 C 314.039062 56.75 311.882812 54.695312 309.679688 52.695312 C 307.472656 50.699219 305.21875 48.753906 302.917969 46.863281 C 300.613281 44.976562 298.269531 43.144531 295.875 41.371094 C 293.484375 39.597656 291.050781 37.882812 288.574219 36.230469 C 286.101562 34.574219 283.585938 32.980469 281.03125 31.453125 C 278.476562 29.921875 275.886719 28.453125 273.261719 27.050781 C 270.636719 25.648438 267.976562 24.308594 265.285156 23.035156 C 262.59375 21.761719 259.875 20.554688 257.121094 19.417969 C 254.371094 18.277344 251.59375 17.207031 248.792969 16.203125 C 245.988281 15.199219 243.160156 14.265625 240.3125 13.402344 C 237.460938 12.539062 234.59375 11.742188 231.707031 11.019531 C 228.816406 10.296875 225.914062 9.644531 222.992188 9.0625 C 220.074219 8.484375 217.140625 7.972656 214.195312 7.535156 C 211.25 7.101562 208.296875 6.734375 205.332031 6.445312 C 202.371094 6.152344 199.402344 5.933594 196.425781 5.785156 C 193.453125 5.640625 190.476562 5.566406 187.5 5.566406 Z M 187.5 5.566406 "/>
<path style=" stroke:none;fill-rule:nonzero;fill:rgb(100%,87.449646%,0%);fill-opacity:1;" d="M 21.539062 26.023438 L 29.597656 27.695312 L 21.390625 27.167969 L 19.71875 35.226562 L 20.238281 27.015625 L 12.183594 25.347656 L 20.394531 25.867188 L 22.066406 17.8125 L 21.539062 26.023438 "/>
<path style=" stroke:none;fill-rule:nonzero;fill:rgb(100%,87.449646%,0%);fill-opacity:1;" d="M 191.78125 32.148438 L 199.839844 33.820312 L 191.628906 33.296875 L 189.960938 41.355469 L 190.484375 33.140625 L 182.429688 31.472656 L 190.640625 31.996094 L 192.308594 23.9375 L 191.78125 32.148438 "/>
<path style=" stroke:none;fill-rule:nonzero;fill:rgb(100%,87.449646%,0%);fill-opacity:1;" d="M 80.058594 115.453125 L 83.601562 116.183594 L 79.992188 115.949219 L 79.253906 119.496094 L 79.484375 115.886719 L 75.941406 115.152344 L 79.554688 115.382812 L 80.289062 111.839844 L 80.058594 115.453125 "/>
<path style=" stroke:none;fill-rule:nonzero;fill:rgb(100%,87.449646%,0%);fill-opacity:1;" d="M 71.351562 56.320312 L 74.898438 57.058594 L 71.285156 56.824219 L 70.550781 60.371094 L 70.78125 56.757812 L 67.238281 56.023438 L 70.847656 56.253906 L 71.582031 52.710938 L 71.351562 56.320312 "/>
<path style=" stroke:none;fill-rule:nonzero;fill:rgb(100%,87.449646%,0%);fill-opacity:1;" d="M 70.691406 23.945312 L 70.464844 23.984375 C 70.210938 24.039062 70.210938 24.449219 70.464844 24.503906 L 70.691406 24.542969 C 71.191406 24.625 71.191406 23.863281 70.691406 23.945312 "/>
<path style=" stroke:none;fill-rule:nonzero;fill:rgb(100%,87.449646%,0%);fill-opacity:1;" d="M 32.582031 77.011719 C 31.9375 77.011719 31.9375 78.011719 32.582031 78.011719 C 33.234375 78.011719 33.234375 77.011719 32.582031 77.011719 "/>
<path style=" stroke:none;fill-rule:nonzero;fill:rgb(100%,87.449646%,0%);fill-opacity:1;" d="M 87.859375 83.019531 C 87.179688 83.019531 87.179688 84.066406 87.859375 84.066406 C 88.535156 84.066406 88.535156 83.019531 87.859375 83.019531 "/>
<path style=" stroke:none;fill-rule:nonzero;fill:rgb(100%,87.449646%,0%);fill-opacity:1;" d="M 134.082031 41.953125 C 133.589844 41.953125 133.589844 42.722656 134.082031 42.722656 C 134.582031 42.722656 134.582031 41.953125 134.082031 41.953125 "/>
<path style=" stroke:none;fill-rule:nonzero;fill:rgb(100%,87.449646%,0%);fill-opacity:1;" d="M 57.375 55.339844 C 56.859375 55.339844 56.859375 56.132812 57.375 56.132812 C 57.886719 56.132812 57.886719 55.339844 57.375 55.339844 "/>
<path style=" stroke:none;fill-rule:nonzero;fill:rgb(100%,87.449646%,0%);fill-opacity:1;" d="M 90.398438 2 C 90.296875 2.117188 90.191406 2.234375 90.085938 2.351562 C 89.949219 2.511719 90.160156 2.722656 90.316406 2.582031 L 90.671875 2.269531 C 90.859375 2.105469 90.566406 1.808594 90.398438 2 "/>
<path style=" stroke:none;fill-rule:nonzero;fill:rgb(100%,87.449646%,0%);fill-opacity:1;" d="M 15.835938 2.367188 C 15.664062 2.382812 15.480469 2.382812 15.332031 2.488281 C 15.160156 2.613281 15.050781 2.855469 15.1875 3.054688 L 15.347656 3.296875 C 15.417969 3.382812 15.585938 3.378906 15.660156 3.296875 L 15.730469 3.226562 L 15.835938 3.238281 C 16.398438 3.277344 16.394531 2.324219 15.835938 2.367188 "/>
<path style=" stroke:none;fill-rule:nonzero;fill:rgb(100%,87.449646%,0%);fill-opacity:1;" d="M 2.703125 63.523438 C 2.558594 63.554688 2.441406 63.574219 2.328125 63.671875 L 2.328125 63.882812 C 2.441406 63.980469 2.558594 64 2.703125 64.035156 C 3.132812 64.136719 3.132812 63.414062 2.703125 63.523438 "/>
<path style=" stroke:none;fill-rule:nonzero;fill:rgb(100%,87.449646%,0%);fill-opacity:1;" d="M 170.597656 16.585938 C 170.222656 16.585938 170.222656 17.164062 170.597656 17.164062 C 170.96875 17.164062 170.96875 16.585938 170.597656 16.585938 "/>
<path style=" stroke:none;fill-rule:nonzero;fill:rgb(100%,87.449646%,0%);fill-opacity:1;" d="M 170.597656 47.289062 C 170.074219 47.289062 170.074219 48.101562 170.597656 48.101562 C 171.121094 48.101562 171.121094 47.289062 170.597656 47.289062 "/>
<path style=" stroke:none;fill-rule:nonzero;fill:rgb(100%,87.449646%,0%);fill-opacity:1;" d="M 95.988281 46.921875 L 95.898438 46.917969 L 95.859375 46.925781 L 95.617188 46.933594 C 95.0625 46.945312 95.0625 47.773438 95.617188 47.789062 L 95.859375 47.800781 L 95.898438 47.804688 L 95.988281 47.804688 C 96.28125 47.8125 96.417969 47.585938 96.414062 47.359375 C 96.417969 47.136719 96.28125 46.910156 95.988281 46.921875 "/>
<path style=" stroke:none;fill-rule:nonzero;fill:rgb(100%,87.449646%,0%);fill-opacity:1;" d="M 132.074219 16.394531 C 131.453125 16.394531 131.453125 17.355469 132.074219 17.355469 C 132.695312 17.355469 132.695312 16.394531 132.074219 16.394531 "/>
<path style=" stroke:none;fill-rule:nonzero;fill:rgb(100%,87.449646%,0%);fill-opacity:1;" d="M 107.976562 24.9375 C 107.921875 25.039062 107.847656 25.117188 107.757812 25.183594 C 107.34375 25.515625 107.34375 26.328125 107.757812 26.660156 C 107.847656 26.726562 107.921875 26.808594 107.976562 26.902344 C 108.765625 27.890625 110.351562 27.035156 110.351562 25.921875 C 110.351562 24.804688 108.765625 23.953125 107.976562 24.9375 "/>
<path style=" stroke:none;fill-rule:nonzero;fill:rgb(100%,87.449646%,0%);fill-opacity:1;" d="M 48.058594 11.066406 C 47.648438 10.984375 47.285156 10.9375 46.875 11.058594 C 46.394531 11.199219 45.898438 11.609375 45.804688 12.128906 L 45.796875 12.1875 C 45.671875 12.441406 45.613281 12.722656 45.730469 13.03125 C 45.847656 13.355469 46.050781 13.574219 46.308594 13.714844 C 46.796875 14.132812 47.4375 14.101562 48.058594 13.96875 C 49.492188 13.679688 49.511719 11.351562 48.058594 11.066406 "/>
<path style=" stroke:none;fill-rule:nonzero;fill:rgb(100%,87.449646%,0%);fill-opacity:1;" d="M 27.664062 60.996094 L 27.582031 60.910156 C 27.222656 60.53125 26.5625 60.53125 26.199219 60.910156 L 26.121094 60.996094 C 25.460938 61.679688 25.925781 62.859375 26.890625 62.859375 C 27.859375 62.859375 28.316406 61.679688 27.664062 60.996094 "/>
<path style=" stroke:none;fill-rule:nonzero;fill:rgb(100%,87.449646%,0%);fill-opacity:1;" d="M 51.914062 85.625 C 51.765625 85.453125 51.582031 85.316406 51.359375 85.28125 C 51.003906 85.230469 50.71875 85.21875 50.402344 85.410156 C 49.617188 85.871094 49.578125 87.09375 50.402344 87.546875 L 50.433594 87.566406 C 50.757812 87.742188 51.191406 87.792969 51.535156 87.625 L 51.636719 87.613281 C 52.582031 87.421875 52.660156 86.0625 51.914062 85.625 "/>
<path style=" stroke:none;fill-rule:nonzero;fill:rgb(100%,87.449646%,0%);fill-opacity:1;" d="M 139.871094 101.316406 C 139.222656 101.316406 139.222656 102.320312 139.871094 102.320312 C 140.515625 102.320312 140.515625 101.316406 139.871094 101.316406 "/>
<path style=" stroke:none;fill-rule:nonzero;fill:rgb(100%,87.449646%,0%);fill-opacity:1;" d="M 109.984375 87.824219 C 109.847656 87.859375 109.722656 87.875 109.617188 87.976562 L 109.617188 88.1875 C 109.722656 88.285156 109.847656 88.304688 109.984375 88.339844 C 110.410156 88.441406 110.410156 87.722656 109.984375 87.824219 "/>
<path style=" stroke:none;fill-rule:nonzero;fill:rgb(100%,87.449646%,0%);fill-opacity:1;" d="M 134.949219 85.296875 L 134.867188 85.210938 C 134.503906 84.835938 133.847656 84.835938 133.484375 85.210938 L 133.402344 85.296875 C 132.746094 85.980469 133.207031 87.167969 134.175781 87.167969 C 135.144531 87.167969 135.605469 85.980469 134.949219 85.296875 "/>
<path style=" stroke:none;fill-rule:nonzero;fill:rgb(100%,87.449646%,0%);fill-opacity:1;" d="M 159.195312 109.929688 C 159.050781 109.757812 158.867188 109.621094 158.636719 109.589844 C 158.285156 109.539062 158.003906 109.523438 157.683594 109.714844 C 156.898438 110.175781 156.859375 111.398438 157.683594 111.851562 L 157.722656 111.871094 C 158.039062 112.046875 158.476562 112.09375 158.820312 111.929688 L 158.917969 111.921875 C 159.863281 111.726562 159.941406 110.367188 159.195312 109.929688 "/>
<path style=" stroke:none;fill-rule:nonzero;fill:rgb(100%,87.449646%,0%);fill-opacity:1;" d="M 5.855469 116.488281 C 5.558594 116.042969 4.972656 115.757812 4.472656 115.757812 C 3.589844 115.757812 2.847656 116.496094 2.847656 117.378906 C 2.847656 118.265625 3.589844 119.003906 4.472656 119.003906 C 4.972656 119.003906 5.558594 118.71875 5.855469 118.269531 C 6.289062 117.742188 6.289062 117.023438 5.855469 116.488281 "/>
<path style=" stroke:none;fill-rule:nonzero;fill:rgb(100%,87.449646%,0%);fill-opacity:1;" d="M 0.289062 34.023438 L 0.0859375 34.070312 C -0.859375 34.296875 -1.140625 35.539062 -0.476562 36.203125 C 0.1875 36.871094 1.429688 36.585938 1.65625 35.640625 L 1.710938 35.441406 C 1.917969 34.570312 1.152344 33.8125 0.289062 34.023438 "/>
<path style=" stroke:none;fill-rule:nonzero;fill:rgb(100%,87.449646%,0%);fill-opacity:1;" d="M 141.792969 0.0078125 C 141.285156 -0.015625 140.886719 0.191406 140.585938 0.601562 C 140.503906 0.722656 140.417969 0.902344 140.378906 1.042969 C 140.308594 1.304688 140.390625 1.445312 140.421875 1.671875 C 140.484375 2.222656 140.882812 2.5625 141.449219 2.457031 C 141.730469 2.402344 141.765625 2.449219 142.015625 2.300781 C 142.546875 1.992188 142.1875 2.183594 142.085938 2.210938 C 143.304688 1.828125 143.066406 0.0507812 141.792969 0.0078125 "/>
<path style=" stroke:none;fill-rule:nonzero;fill:rgb(100%,87.449646%,0%);fill-opacity:1;" d="M 164.769531 27.902344 C 164.496094 27.714844 164.183594 27.605469 163.8125 27.632812 C 162.921875 27.699219 162.175781 28.328125 162.175781 29.269531 C 162.175781 30.214844 162.921875 30.839844 163.8125 30.90625 C 164.183594 30.9375 164.496094 30.828125 164.769531 30.636719 C 165.988281 30.117188 165.988281 28.425781 164.769531 27.902344 "/>
<path style=" stroke:none;fill-rule:nonzero;fill:rgb(100%,87.449646%,0%);fill-opacity:1;" d="M 129.964844 66.894531 C 129.960938 66.195312 129.320312 65.511719 128.570312 65.773438 C 127.632812 66.105469 127.363281 66.859375 127.550781 67.789062 C 127.78125 68.964844 129.65625 68.949219 129.902344 67.789062 C 129.964844 67.46875 129.996094 67.183594 129.964844 66.894531 "/>
<path style=" stroke:none;fill-rule:nonzero;fill:rgb(100%,87.449646%,0%);fill-opacity:1;" d="M 102.800781 110.925781 C 102.496094 110.265625 101.355469 110.265625 101.050781 110.925781 C 100.9375 111.175781 100.859375 111.410156 100.886719 111.6875 C 101.023438 113.027344 102.832031 113.027344 102.96875 111.6875 C 102.996094 111.410156 102.917969 111.175781 102.800781 110.925781 "/>
<path style=" stroke:none;fill-rule:nonzero;fill:rgb(100%,87.449646%,0%);fill-opacity:1;" d="M 32.25 119.53125 C 32.09375 119.542969 31.933594 119.550781 31.78125 119.59375 C 30.984375 119.804688 30.984375 120.988281 31.78125 121.199219 C 31.933594 121.242188 32.09375 121.25 32.25 121.261719 C 33.367188 121.332031 33.367188 119.460938 32.25 119.53125 "/>
<path style=" stroke:none;fill-rule:nonzero;fill:rgb(100%,87.449646%,0%);fill-opacity:1;" d="M 14.109375 140.367188 L 9.589844 133.484375 L 15.023438 139.664062 L 21.90625 135.148438 L 15.726562 140.582031 L 20.238281 147.460938 L 14.808594 141.285156 L 7.929688 145.800781 L 14.109375 140.367188 "/>
<path style=" stroke:none;fill-rule:nonzero;fill:rgb(100%,87.449646%,0%);fill-opacity:1;" d="M 152.003906 160.472656 L 150.011719 157.449219 L 152.40625 160.167969 L 155.433594 158.179688 L 152.71875 160.570312 L 154.699219 163.59375 L 152.3125 160.875 L 149.285156 162.867188 L 152.003906 160.472656 "/>
<path style=" stroke:none;fill-rule:nonzero;fill:rgb(100%,87.449646%,0%);fill-opacity:1;" d="M 116.355469 208.445312 L 114.367188 205.414062 L 116.757812 208.132812 L 119.78125 206.148438 L 117.066406 208.539062 L 119.054688 211.566406 L 116.664062 208.847656 L 113.636719 210.832031 L 116.355469 208.445312 "/>
<path style=" stroke:none;fill-rule:nonzero;fill:rgb(100%,87.449646%,0%);fill-opacity:1;" d="M 93.929688 231.800781 L 94.117188 231.933594 C 94.335938 232.074219 94.628906 231.785156 94.484375 231.566406 L 94.355469 231.378906 C 94.054688 230.964844 93.519531 231.503906 93.929688 231.800781 "/>
<path style=" stroke:none;fill-rule:nonzero;fill:rgb(100%,87.449646%,0%);fill-opacity:1;" d="M 158.394531 221.230469 C 158.851562 221.6875 159.566406 220.972656 159.101562 220.515625 C 158.644531 220.058594 157.9375 220.765625 158.394531 221.230469 "/>
<path style=" stroke:none;fill-rule:nonzero;fill:rgb(100%,87.449646%,0%);fill-opacity:1;" d="M 123.558594 177.890625 C 124.035156 178.367188 124.777344 177.628906 124.300781 177.148438 C 123.824219 176.671875 123.078125 177.414062 123.558594 177.890625 "/>
<path style=" stroke:none;fill-rule:nonzero;fill:rgb(100%,87.449646%,0%);fill-opacity:1;" d="M 61.835938 174.238281 C 62.183594 174.589844 62.726562 174.046875 62.378906 173.695312 C 62.027344 173.347656 61.484375 173.890625 61.835938 174.238281 "/>
<path style=" stroke:none;fill-rule:nonzero;fill:rgb(100%,87.449646%,0%);fill-opacity:1;" d="M 125.542969 219.023438 C 125.90625 219.386719 126.46875 218.824219 126.109375 218.457031 C 125.742188 218.097656 125.179688 218.65625 125.542969 219.023438 "/>
<path style=" stroke:none;fill-rule:nonzero;fill:rgb(100%,87.449646%,0%);fill-opacity:1;" d="M 64.476562 233.386719 C 64.636719 233.371094 64.792969 233.363281 64.949219 233.351562 C 65.160156 233.339844 65.160156 233.042969 64.949219 233.027344 L 64.476562 233 C 64.230469 232.984375 64.230469 233.402344 64.476562 233.386719 "/>
<path style=" stroke:none;fill-rule:nonzero;fill:rgb(100%,87.449646%,0%);fill-opacity:1;" d="M 117.460938 285.851562 C 117.59375 285.964844 117.726562 286.089844 117.902344 286.125 C 118.113281 286.160156 118.367188 286.066406 118.40625 285.828125 C 118.429688 285.730469 118.457031 285.644531 118.464844 285.546875 C 118.476562 285.429688 118.359375 285.3125 118.246094 285.324219 L 118.140625 285.324219 L 118.078125 285.238281 C 117.707031 284.808594 117.035156 285.488281 117.460938 285.851562 "/>
<path style=" stroke:none;fill-rule:nonzero;fill:rgb(100%,87.449646%,0%);fill-opacity:1;" d="M 169.988281 251.898438 C 170.109375 251.972656 170.210938 252.046875 170.359375 252.050781 L 170.5 251.90625 C 170.496094 251.761719 170.425781 251.660156 170.351562 251.539062 C 170.125 251.160156 169.613281 251.671875 169.988281 251.898438 "/>
<path style=" stroke:none;fill-rule:nonzero;fill:rgb(100%,87.449646%,0%);fill-opacity:1;" d="M 18.082031 166.351562 C 18.34375 166.617188 18.75 166.210938 18.492188 165.949219 C 18.226562 165.683594 17.820312 166.09375 18.082031 166.351562 "/>
<path style=" stroke:none;fill-rule:nonzero;fill:rgb(100%,87.449646%,0%);fill-opacity:1;" d="M 39.789062 144.640625 C 40.164062 145.015625 40.734375 144.4375 40.367188 144.070312 C 39.996094 143.695312 39.421875 144.273438 39.789062 144.640625 "/>
<path style=" stroke:none;fill-rule:nonzero;fill:rgb(100%,87.449646%,0%);fill-opacity:1;" d="M 92.285156 197.664062 L 92.347656 197.734375 L 92.378906 197.753906 L 92.558594 197.921875 C 92.957031 198.300781 93.542969 197.71875 93.160156 197.3125 L 93 197.136719 L 92.976562 197.105469 L 92.910156 197.039062 C 92.710938 196.835938 92.453125 196.890625 92.296875 197.054688 C 92.136719 197.207031 92.074219 197.46875 92.285156 197.664062 "/>
<path style=" stroke:none;fill-rule:nonzero;fill:rgb(100%,87.449646%,0%);fill-opacity:1;" d="M 45.191406 193.730469 C 45.625 194.171875 46.304688 193.492188 45.867188 193.054688 C 45.429688 192.617188 44.746094 193.296875 45.191406 193.730469 "/>
<path style=" stroke:none;fill-rule:nonzero;fill:rgb(100%,87.449646%,0%);fill-opacity:1;" d="M 68.265625 204.730469 C 68.378906 204.703125 68.484375 204.699219 68.59375 204.71875 C 69.121094 204.769531 69.691406 204.195312 69.636719 203.667969 C 69.621094 203.5625 69.625 203.449219 69.65625 203.34375 C 69.796875 202.082031 68.074219 201.570312 67.285156 202.359375 C 66.496094 203.148438 67.011719 204.867188 68.265625 204.730469 "/>
<path style=" stroke:none;fill-rule:nonzero;fill:rgb(100%,87.449646%,0%);fill-opacity:1;" d="M 100.828125 256.914062 C 101.0625 257.257812 101.289062 257.550781 101.660156 257.753906 C 102.097656 257.996094 102.742188 258.058594 103.175781 257.753906 L 103.222656 257.726562 C 103.488281 257.628906 103.726562 257.472656 103.867188 257.167969 C 104.011719 256.859375 104.023438 256.5625 103.941406 256.277344 C 103.886719 255.636719 103.410156 255.207031 102.882812 254.859375 C 101.660156 254.050781 100.003906 255.6875 100.828125 256.914062 "/>
<path style=" stroke:none;fill-rule:nonzero;fill:rgb(100%,87.449646%,0%);fill-opacity:1;" d="M 150.550781 236.035156 L 150.550781 236.152344 C 150.539062 236.671875 151 237.140625 151.527344 237.128906 L 151.644531 237.128906 C 152.589844 237.105469 153.101562 235.945312 152.414062 235.257812 C 151.734375 234.574219 150.570312 235.089844 150.550781 236.035156 "/>
<path style=" stroke:none;fill-rule:nonzero;fill:rgb(100%,87.449646%,0%);fill-opacity:1;" d="M 150.820312 201.46875 C 150.800781 201.691406 150.832031 201.921875 150.96875 202.105469 C 151.183594 202.390625 151.375 202.597656 151.734375 202.6875 C 152.613281 202.917969 153.507812 202.078125 153.246094 201.179688 L 153.234375 201.136719 C 153.128906 200.785156 152.859375 200.445312 152.5 200.316406 L 152.421875 200.257812 C 151.617188 199.722656 150.601562 200.628906 150.820312 201.46875 "/>
<path style=" stroke:none;fill-rule:nonzero;fill:rgb(100%,87.449646%,0%);fill-opacity:1;" d="M 205.210938 212.214844 C 205.105469 212.742188 205.316406 213.355469 205.671875 213.707031 C 206.296875 214.335938 207.335938 214.335938 207.960938 213.707031 C 208.589844 213.082031 208.589844 212.042969 207.960938 211.414062 C 207.605469 211.058594 206.996094 210.851562 206.46875 210.957031 C 205.785156 211.023438 205.277344 211.53125 205.210938 212.214844 "/>
<path style=" stroke:none;fill-rule:nonzero;fill:rgb(100%,87.449646%,0%);fill-opacity:1;" d="M 150.835938 274.464844 L 151.015625 274.574219 C 151.839844 275.078125 152.921875 274.402344 152.921875 273.460938 C 152.921875 272.523438 151.839844 271.847656 151.015625 272.351562 L 150.835938 272.457031 C 150.078125 272.921875 150.078125 274 150.835938 274.464844 "/>
<path style=" stroke:none;fill-rule:nonzero;fill:rgb(100%,87.449646%,0%);fill-opacity:1;" d="M 26.730469 198.453125 C 27.078125 198.820312 27.5 198.957031 28 198.875 C 28.152344 198.855469 28.335938 198.789062 28.460938 198.714844 C 28.695312 198.582031 28.734375 198.421875 28.878906 198.242188 C 29.21875 197.804688 29.183594 197.28125 28.710938 196.960938 C 28.46875 196.800781 28.476562 196.742188 28.191406 196.667969 C 27.601562 196.511719 27.988281 196.632812 28.078125 196.679688 C 26.949219 196.089844 25.863281 197.515625 26.730469 198.453125 "/>
<path style=" stroke:none;fill-rule:nonzero;fill:rgb(100%,87.449646%,0%);fill-opacity:1;" d="M 30.207031 162.476562 C 30.269531 162.796875 30.410156 163.101562 30.691406 163.339844 C 31.367188 163.925781 32.339844 164.003906 33.007812 163.339844 C 33.671875 162.675781 33.59375 161.699219 33.007812 161.023438 C 32.765625 160.746094 32.464844 160.601562 32.140625 160.535156 C 30.910156 160.046875 29.714844 161.242188 30.207031 162.476562 "/>
<path style=" stroke:none;fill-rule:nonzero;fill:rgb(100%,87.449646%,0%);fill-opacity:1;" d="M 82.386719 159.511719 C 81.890625 160.007812 81.859375 160.945312 82.578125 161.292969 C 83.472656 161.722656 84.199219 161.378906 84.722656 160.59375 C 85.386719 159.597656 84.054688 158.28125 83.058594 158.929688 C 82.785156 159.105469 82.566406 159.289062 82.386719 159.511719 "/>
<path style=" stroke:none;fill-rule:nonzero;fill:rgb(100%,87.449646%,0%);fill-opacity:1;" d="M 132.722656 147.589844 C 132.46875 148.277344 133.273438 149.082031 133.960938 148.828125 C 134.214844 148.730469 134.4375 148.621094 134.613281 148.410156 C 135.464844 147.359375 134.191406 146.085938 133.140625 146.9375 C 132.929688 147.109375 132.820312 147.335938 132.722656 147.589844 "/>
<path style=" stroke:none;fill-rule:nonzero;fill:rgb(100%,87.449646%,0%);fill-opacity:1;" d="M 188.691406 191.394531 C 188.8125 191.503906 188.933594 191.605469 189.074219 191.683594 C 189.78125 192.101562 190.621094 191.261719 190.207031 190.550781 C 190.125 190.414062 190.023438 190.296875 189.914062 190.171875 C 189.179688 189.335938 187.859375 190.65625 188.691406 191.394531 "/>
<path style=" stroke:none;fill-rule:nonzero;fill:rgb(100%,87.449646%,0%);fill-opacity:1;" d="M 247.160156 27.117188 L 255.585938 28.859375 L 247.003906 28.3125 L 245.257812 36.738281 L 245.804688 28.152344 L 237.382812 26.410156 L 245.96875 26.957031 L 247.710938 18.53125 L 247.160156 27.117188 "/>
<path style=" stroke:none;fill-rule:nonzero;fill:rgb(100%,87.449646%,0%);fill-opacity:1;" d="M 308.335938 120.597656 L 312.042969 121.367188 L 308.265625 121.125 L 307.496094 124.832031 L 307.738281 121.054688 L 304.035156 120.289062 L 307.804688 120.527344 L 308.578125 116.824219 L 308.335938 120.597656 "/>
<path style=" stroke:none;fill-rule:nonzero;fill:rgb(100%,87.449646%,0%);fill-opacity:1;" d="M 299.238281 58.785156 L 302.941406 59.558594 L 299.164062 59.3125 L 298.394531 63.019531 L 298.640625 59.242188 L 294.933594 58.476562 L 298.707031 58.71875 L 299.476562 55.011719 L 299.238281 58.785156 "/>
<path style=" stroke:none;fill-rule:nonzero;fill:rgb(100%,87.449646%,0%);fill-opacity:1;" d="M 298.542969 24.945312 L 298.304688 24.984375 C 298.035156 25.042969 298.035156 25.472656 298.304688 25.527344 L 298.542969 25.570312 C 299.066406 25.65625 299.066406 24.859375 298.542969 24.945312 "/>
<path style=" stroke:none;fill-rule:nonzero;fill:rgb(100%,87.449646%,0%);fill-opacity:1;" d="M 258.707031 80.414062 C 258.03125 80.414062 258.03125 81.46875 258.707031 81.46875 C 259.386719 81.46875 259.386719 80.414062 258.707031 80.414062 "/>
<path style=" stroke:none;fill-rule:nonzero;fill:rgb(100%,87.449646%,0%);fill-opacity:1;" d="M 316.488281 86.699219 C 315.78125 86.699219 315.78125 87.796875 316.488281 87.796875 C 317.195312 87.796875 317.195312 86.699219 316.488281 86.699219 "/>
<path style=" stroke:none;fill-rule:nonzero;fill:rgb(100%,87.449646%,0%);fill-opacity:1;" d="M 284.621094 57.757812 C 284.082031 57.757812 284.082031 58.59375 284.621094 58.59375 C 285.160156 58.59375 285.160156 57.757812 284.621094 57.757812 "/>
<path style=" stroke:none;fill-rule:nonzero;fill:rgb(100%,87.449646%,0%);fill-opacity:1;" d="M 319.144531 2 C 319.039062 2.125 318.929688 2.25 318.820312 2.371094 C 318.671875 2.539062 318.894531 2.753906 319.058594 2.613281 L 319.429688 2.28125 C 319.625 2.109375 319.320312 1.804688 319.144531 2 "/>
<path style=" stroke:none;fill-rule:nonzero;fill:rgb(100%,87.449646%,0%);fill-opacity:1;" d="M 241.199219 2.386719 C 241.019531 2.402344 240.828125 2.40625 240.675781 2.511719 C 240.496094 2.640625 240.375 2.894531 240.519531 3.101562 L 240.6875 3.359375 C 240.761719 3.445312 240.9375 3.445312 241.011719 3.359375 L 241.089844 3.285156 L 241.199219 3.296875 C 241.792969 3.335938 241.789062 2.34375 241.199219 2.386719 "/>
<path style=" stroke:none;fill-rule:nonzero;fill:rgb(100%,87.449646%,0%);fill-opacity:1;" d="M 227.46875 66.3125 C 227.324219 66.351562 227.195312 66.371094 227.082031 66.472656 L 227.082031 66.691406 C 227.195312 66.796875 227.324219 66.8125 227.46875 66.851562 C 227.917969 66.960938 227.917969 66.203125 227.46875 66.3125 "/>
<path style=" stroke:none;fill-rule:nonzero;fill:rgb(100%,87.449646%,0%);fill-opacity:1;" d="M 324.988281 48.960938 L 324.894531 48.957031 L 324.851562 48.964844 L 324.601562 48.972656 C 324.019531 48.988281 324.019531 49.855469 324.601562 49.867188 L 324.851562 49.875 L 324.894531 49.886719 L 324.988281 49.878906 C 325.292969 49.890625 325.4375 49.660156 325.433594 49.421875 C 325.4375 49.183594 325.292969 48.953125 324.988281 48.960938 "/>
<path style=" stroke:none;fill-rule:nonzero;fill:rgb(100%,87.449646%,0%);fill-opacity:1;" d="M 337.523438 25.984375 C 337.460938 26.082031 337.382812 26.167969 337.296875 26.234375 C 336.863281 26.582031 336.863281 27.433594 337.296875 27.78125 C 337.382812 27.847656 337.460938 27.933594 337.523438 28.035156 C 338.347656 29.0625 340.003906 28.175781 340.003906 27.011719 C 340.003906 25.84375 338.347656 24.953125 337.523438 25.984375 "/>
<path style=" stroke:none;fill-rule:nonzero;fill:rgb(100%,87.449646%,0%);fill-opacity:1;" d="M 274.886719 11.480469 C 274.460938 11.398438 274.074219 11.347656 273.644531 11.472656 C 273.144531 11.617188 272.625 12.050781 272.527344 12.59375 L 272.519531 12.652344 C 272.386719 12.917969 272.328125 13.210938 272.453125 13.535156 C 272.574219 13.875 272.789062 14.105469 273.054688 14.25 C 273.5625 14.683594 274.234375 14.648438 274.886719 14.519531 C 276.386719 14.210938 276.402344 11.777344 274.886719 11.480469 "/>
<path style=" stroke:none;fill-rule:nonzero;fill:rgb(100%,87.449646%,0%);fill-opacity:1;" d="M 253.566406 63.671875 L 253.476562 63.585938 C 253.101562 63.1875 252.414062 63.1875 252.035156 63.585938 L 251.949219 63.671875 C 251.261719 64.386719 251.742188 65.625 252.753906 65.625 C 253.769531 65.625 254.25 64.386719 253.566406 63.671875 "/>
<path style=" stroke:none;fill-rule:nonzero;fill:rgb(100%,87.449646%,0%);fill-opacity:1;" d="M 278.914062 89.421875 C 278.757812 89.238281 278.566406 89.097656 278.332031 89.066406 C 277.964844 89.011719 277.667969 88.996094 277.335938 89.195312 C 276.511719 89.679688 276.472656 90.957031 277.335938 91.429688 L 277.371094 91.453125 C 277.703125 91.632812 278.160156 91.683594 278.515625 91.515625 L 278.625 91.5 C 279.613281 91.300781 279.695312 89.882812 278.914062 89.421875 "/>
<path style=" stroke:none;fill-rule:nonzero;fill:rgb(100%,87.449646%,0%);fill-opacity:1;" d="M 230.765625 121.6875 C 230.453125 121.222656 229.847656 120.917969 229.316406 120.917969 C 228.398438 120.917969 227.621094 121.695312 227.621094 122.617188 C 227.621094 123.542969 228.398438 124.3125 229.316406 124.3125 C 229.847656 124.3125 230.453125 124.015625 230.765625 123.550781 C 231.222656 122.996094 231.222656 122.242188 230.765625 121.6875 "/>
<path style=" stroke:none;fill-rule:nonzero;fill:rgb(100%,87.449646%,0%);fill-opacity:1;" d="M 224.945312 35.476562 L 224.738281 35.523438 C 223.75 35.765625 223.453125 37.066406 224.148438 37.761719 C 224.839844 38.453125 226.140625 38.15625 226.382812 37.167969 L 226.429688 36.960938 C 226.65625 36.054688 225.851562 35.253906 224.945312 35.476562 "/>
<path style=" stroke:none;fill-rule:nonzero;fill:rgb(100%,87.449646%,0%);fill-opacity:1;" d="M 332.109375 115.871094 C 331.789062 115.179688 330.597656 115.179688 330.28125 115.871094 C 330.164062 116.132812 330.078125 116.375 330.105469 116.664062 C 330.25 118.066406 332.140625 118.066406 332.289062 116.664062 C 332.3125 116.375 332.226562 116.132812 332.109375 115.871094 "/>
<path style=" stroke:none;fill-rule:nonzero;fill:rgb(100%,87.449646%,0%);fill-opacity:1;" d="M 258.355469 124.863281 C 258.195312 124.878906 258.027344 124.886719 257.871094 124.929688 C 257.039062 125.148438 257.039062 126.390625 257.871094 126.613281 C 258.027344 126.652344 258.195312 126.664062 258.355469 126.675781 C 259.523438 126.746094 259.523438 124.792969 258.355469 124.863281 "/>
<path style=" stroke:none;fill-rule:nonzero;fill:rgb(100%,87.449646%,0%);fill-opacity:1;" d="M 239.394531 146.644531 L 234.667969 139.457031 L 240.355469 145.914062 L 247.542969 141.191406 L 241.085938 146.871094 L 245.804688 154.0625 L 240.125 147.605469 L 232.933594 152.324219 L 239.394531 146.644531 "/>
<path style=" stroke:none;fill-rule:nonzero;fill:rgb(100%,87.449646%,0%);fill-opacity:1;" d="M 132.25 48.84375 L 127.53125 41.652344 L 133.210938 48.109375 L 140.398438 43.390625 L 133.941406 49.070312 L 138.664062 56.257812 L 132.980469 49.800781 L 125.792969 54.527344 L 132.25 48.84375 "/>
<path style=" stroke:none;fill-rule:nonzero;fill:rgb(100%,87.449646%,0%);fill-opacity:1;" d="M 66.066406 231.210938 L 61.34375 224.019531 L 67.023438 230.476562 L 74.214844 225.753906 L 67.753906 231.4375 L 72.472656 238.628906 L 66.792969 232.167969 L 59.605469 236.890625 L 66.066406 231.210938 "/>
<path style=" stroke:none;fill-rule:nonzero;fill:rgb(100%,87.449646%,0%);fill-opacity:1;" d="M 61.648438 341.71875 L 56.925781 334.53125 L 62.609375 340.988281 L 69.796875 336.265625 L 63.339844 341.949219 L 68.0625 349.136719 L 62.378906 342.679688 L 55.1875 347.402344 L 61.648438 341.71875 "/>
<path style=" stroke:none;fill-rule:nonzero;fill:rgb(100%,87.449646%,0%);fill-opacity:1;" d="M 311.195312 288.910156 L 306.472656 281.71875 L 312.15625 288.175781 L 319.34375 283.453125 L 312.886719 289.136719 L 317.609375 296.328125 L 311.929688 289.867188 L 304.738281 294.589844 L 311.195312 288.910156 "/>
<path style=" stroke:none;fill-rule:nonzero;fill:rgb(100%,87.449646%,0%);fill-opacity:1;" d="M 299.605469 150.679688 L 294.882812 143.488281 L 300.566406 149.945312 L 307.753906 145.226562 L 301.296875 150.90625 L 306.019531 158.097656 L 300.335938 151.636719 L 293.144531 156.363281 L 299.605469 150.679688 "/>
<path style=" stroke:none;fill-rule:nonzero;fill:rgb(100%,87.449646%,0%);fill-opacity:1;" d="M 112.792969 133.375 L 108.074219 126.183594 L 113.753906 132.640625 L 120.941406 127.917969 L 114.484375 133.601562 L 119.207031 140.792969 L 113.523438 134.332031 L 106.332031 139.054688 L 112.792969 133.375 "/>
<path style=" stroke:none;fill-rule:nonzero;fill:rgb(100%,87.449646%,0%);fill-opacity:1;" d="M 322.839844 242.230469 L 323.035156 242.367188 C 323.265625 242.515625 323.566406 242.210938 323.417969 241.980469 L 323.277344 241.785156 C 322.96875 241.359375 322.40625 241.917969 322.839844 242.230469 "/>
<path style=" stroke:none;fill-rule:nonzero;fill:rgb(100%,87.449646%,0%);fill-opacity:1;" d="M 289.285156 182.054688 C 289.652344 182.421875 290.222656 181.851562 289.855469 181.484375 C 289.488281 181.121094 288.921875 181.6875 289.285156 182.054688 "/>
<path style=" stroke:none;fill-rule:nonzero;fill:rgb(100%,87.449646%,0%);fill-opacity:1;" d="M 292.046875 243.878906 C 292.210938 243.875 292.378906 243.859375 292.542969 243.851562 C 292.761719 243.835938 292.761719 243.527344 292.539062 243.511719 L 292.046875 243.480469 C 291.789062 243.464844 291.789062 243.898438 292.046875 243.878906 "/>
<path style=" stroke:none;fill-rule:nonzero;fill:rgb(100%,87.449646%,0%);fill-opacity:1;" d="M 243.550781 173.8125 C 243.824219 174.085938 244.246094 173.660156 243.972656 173.386719 C 243.699219 173.109375 243.277344 173.539062 243.550781 173.8125 "/>
<path style=" stroke:none;fill-rule:nonzero;fill:rgb(100%,87.449646%,0%);fill-opacity:1;" d="M 266.242188 151.117188 C 266.628906 151.503906 267.230469 150.902344 266.84375 150.515625 C 266.457031 150.128906 265.855469 150.730469 266.242188 151.117188 "/>
<path style=" stroke:none;fill-rule:nonzero;fill:rgb(100%,87.449646%,0%);fill-opacity:1;" d="M 321.117188 206.542969 L 321.183594 206.613281 L 321.21875 206.636719 L 321.402344 206.808594 C 321.824219 207.207031 322.433594 206.597656 322.039062 206.175781 L 321.863281 205.992188 L 321.839844 205.960938 L 321.773438 205.890625 C 321.566406 205.671875 321.292969 205.734375 321.132812 205.90625 C 320.957031 206.066406 320.898438 206.335938 321.117188 206.542969 "/>
<path style=" stroke:none;fill-rule:nonzero;fill:rgb(100%,87.449646%,0%);fill-opacity:1;" d="M 271.882812 202.433594 C 272.339844 202.890625 273.050781 202.179688 272.59375 201.722656 C 272.132812 201.261719 271.425781 201.972656 271.882812 202.433594 "/>
<path style=" stroke:none;fill-rule:nonzero;fill:rgb(100%,87.449646%,0%);fill-opacity:1;" d="M 296.007812 213.929688 C 296.125 213.898438 296.238281 213.894531 296.347656 213.910156 C 296.902344 213.96875 297.5 213.371094 297.441406 212.816406 C 297.425781 212.703125 297.429688 212.59375 297.460938 212.476562 C 297.609375 211.164062 295.804688 210.628906 294.980469 211.449219 C 294.160156 212.273438 294.699219 214.074219 296.007812 213.929688 "/>
<path style=" stroke:none;fill-rule:nonzero;fill:rgb(100%,87.449646%,0%);fill-opacity:1;" d="M 330.046875 268.480469 C 330.289062 268.839844 330.523438 269.144531 330.917969 269.363281 C 331.375 269.613281 332.050781 269.675781 332.5 269.363281 L 332.550781 269.328125 C 332.832031 269.230469 333.078125 269.0625 333.226562 268.75 C 333.371094 268.421875 333.386719 268.109375 333.300781 267.8125 C 333.246094 267.144531 332.75 266.695312 332.195312 266.332031 C 330.917969 265.488281 329.183594 267.195312 330.046875 268.480469 "/>
<path style=" stroke:none;fill-rule:nonzero;fill:rgb(100%,87.449646%,0%);fill-opacity:1;" d="M 252.589844 207.363281 C 252.949219 207.753906 253.394531 207.894531 253.917969 207.8125 C 254.074219 207.785156 254.265625 207.710938 254.398438 207.640625 C 254.640625 207.503906 254.683594 207.332031 254.835938 207.144531 C 255.191406 206.691406 255.152344 206.144531 254.65625 205.808594 C 254.40625 205.636719 254.410156 205.578125 254.121094 205.5 C 253.496094 205.335938 253.902344 205.464844 254.003906 205.511719 C 252.816406 204.898438 251.683594 206.386719 252.589844 207.363281 "/>
<path style=" stroke:none;fill-rule:nonzero;fill:rgb(100%,87.449646%,0%);fill-opacity:1;" d="M 256.21875 169.757812 C 256.289062 170.09375 256.441406 170.40625 256.730469 170.664062 C 257.4375 171.273438 258.457031 171.355469 259.152344 170.664062 C 259.84375 169.96875 259.765625 168.949219 259.152344 168.242188 C 258.894531 167.949219 258.582031 167.800781 258.242188 167.734375 C 256.957031 167.214844 255.703125 168.46875 256.21875 169.757812 "/>
<path style=" stroke:none;fill-rule:nonzero;fill:rgb(100%,87.449646%,0%);fill-opacity:1;" d="M 310.769531 166.660156 C 310.25 167.179688 310.222656 168.15625 310.972656 168.519531 C 311.90625 168.96875 312.664062 168.613281 313.214844 167.789062 C 313.90625 166.746094 312.511719 165.371094 311.472656 166.050781 C 311.191406 166.238281 310.953125 166.425781 310.769531 166.660156 "/>
<path style=" stroke:none;fill-rule:nonzero;fill:rgb(100%,87.449646%,0%);fill-opacity:1;" d="M 306.671875 354.171875 L 298.613281 352.503906 L 306.824219 353.027344 L 308.492188 344.96875 L 307.96875 353.183594 L 316.023438 354.851562 L 307.8125 354.328125 L 306.144531 362.382812 L 306.671875 354.171875 "/>
<path style=" stroke:none;fill-rule:nonzero;fill:rgb(100%,87.449646%,0%);fill-opacity:1;" d="M 248.152344 264.746094 L 244.605469 264.011719 L 248.222656 264.246094 L 248.957031 260.699219 L 248.722656 264.3125 L 252.269531 265.042969 L 248.652344 264.8125 L 247.921875 268.359375 L 248.152344 264.746094 "/>
<path style=" stroke:none;fill-rule:nonzero;fill:rgb(100%,87.449646%,0%);fill-opacity:1;" d="M 256.855469 323.875 L 253.3125 323.140625 L 256.925781 323.371094 L 257.664062 319.828125 L 257.429688 323.4375 L 260.976562 324.175781 L 257.359375 323.945312 L 256.628906 327.492188 L 256.855469 323.875 "/>
<path style=" stroke:none;fill-rule:nonzero;fill:rgb(100%,87.449646%,0%);fill-opacity:1;" d="M 257.519531 356.25 L 257.746094 356.210938 C 258 356.15625 258.003906 355.75 257.746094 355.695312 L 257.519531 355.652344 C 257.019531 355.570312 257.019531 356.332031 257.519531 356.25 "/>
<path style=" stroke:none;fill-rule:nonzero;fill:rgb(100%,87.449646%,0%);fill-opacity:1;" d="M 295.625 303.1875 C 296.273438 303.1875 296.273438 302.179688 295.625 302.183594 C 294.976562 302.179688 294.976562 303.1875 295.625 303.1875 "/>
<path style=" stroke:none;fill-rule:nonzero;fill:rgb(100%,87.449646%,0%);fill-opacity:1;" d="M 240.355469 297.175781 C 241.03125 297.175781 241.03125 296.128906 240.355469 296.128906 C 239.675781 296.128906 239.675781 297.175781 240.355469 297.175781 "/>
<path style=" stroke:none;fill-rule:nonzero;fill:rgb(100%,87.449646%,0%);fill-opacity:1;" d="M 194.125 338.246094 C 194.621094 338.246094 194.621094 337.476562 194.125 337.476562 C 193.628906 337.476562 193.628906 338.246094 194.125 338.246094 "/>
<path style=" stroke:none;fill-rule:nonzero;fill:rgb(100%,87.449646%,0%);fill-opacity:1;" d="M 270.835938 324.859375 C 271.351562 324.859375 271.351562 324.0625 270.835938 324.0625 C 270.324219 324.0625 270.324219 324.859375 270.835938 324.859375 "/>
<path style=" stroke:none;fill-rule:nonzero;fill:rgb(100%,87.449646%,0%);fill-opacity:1;" d="M 325.507812 316.675781 C 325.648438 316.640625 325.769531 316.621094 325.878906 316.523438 L 325.878906 316.316406 C 325.769531 316.214844 325.648438 316.199219 325.507812 316.164062 C 325.082031 316.058594 325.082031 316.78125 325.507812 316.675781 "/>
<path style=" stroke:none;fill-rule:nonzero;fill:rgb(100%,87.449646%,0%);fill-opacity:1;" d="M 157.609375 363.609375 C 157.984375 363.609375 157.984375 363.035156 157.609375 363.035156 C 157.242188 363.035156 157.242188 363.609375 157.609375 363.609375 "/>
<path style=" stroke:none;fill-rule:nonzero;fill:rgb(100%,87.449646%,0%);fill-opacity:1;" d="M 157.609375 332.90625 C 158.140625 332.90625 158.140625 332.097656 157.609375 332.097656 C 157.089844 332.097656 157.089844 332.90625 157.609375 332.90625 "/>
<path style=" stroke:none;fill-rule:nonzero;fill:rgb(100%,87.449646%,0%);fill-opacity:1;" d="M 232.222656 333.273438 L 232.3125 333.277344 L 232.351562 333.269531 L 232.589844 333.265625 C 233.144531 333.25 233.144531 332.421875 232.589844 332.40625 L 232.351562 332.398438 L 232.3125 332.390625 L 232.222656 332.394531 C 231.933594 332.386719 231.792969 332.609375 231.796875 332.835938 C 231.792969 333.0625 231.933594 333.285156 232.222656 333.273438 "/>
<path style=" stroke:none;fill-rule:nonzero;fill:rgb(100%,87.449646%,0%);fill-opacity:1;" d="M 196.136719 363.800781 C 196.753906 363.800781 196.753906 362.839844 196.136719 362.839844 C 195.515625 362.839844 195.515625 363.800781 196.136719 363.800781 "/>
<path style=" stroke:none;fill-rule:nonzero;fill:rgb(100%,87.449646%,0%);fill-opacity:1;" d="M 220.230469 355.257812 C 220.289062 355.160156 220.359375 355.082031 220.449219 355.015625 C 220.863281 354.683594 220.863281 353.871094 220.449219 353.535156 C 220.359375 353.46875 220.289062 353.390625 220.230469 353.296875 C 219.441406 352.304688 217.859375 353.164062 217.859375 354.273438 C 217.859375 355.390625 219.441406 356.246094 220.230469 355.257812 "/>
<path style=" stroke:none;fill-rule:nonzero;fill:rgb(100%,87.449646%,0%);fill-opacity:1;" d="M 280.148438 369.132812 C 280.558594 369.210938 280.925781 369.257812 281.339844 369.140625 C 281.816406 369 282.3125 368.585938 282.40625 368.070312 L 282.417969 368.011719 C 282.539062 367.753906 282.597656 367.472656 282.484375 367.164062 C 282.363281 366.84375 282.15625 366.621094 281.902344 366.480469 C 281.414062 366.0625 280.769531 366.097656 280.148438 366.226562 C 278.714844 366.519531 278.699219 368.847656 280.148438 369.132812 "/>
<path style=" stroke:none;fill-rule:nonzero;fill:rgb(100%,87.449646%,0%);fill-opacity:1;" d="M 300.542969 319.199219 L 300.625 319.289062 C 300.992188 319.667969 301.644531 319.667969 302.011719 319.289062 L 302.09375 319.199219 C 302.746094 318.515625 302.289062 317.335938 301.320312 317.335938 C 300.347656 317.335938 299.894531 318.515625 300.542969 319.199219 "/>
<path style=" stroke:none;fill-rule:nonzero;fill:rgb(100%,87.449646%,0%);fill-opacity:1;" d="M 276.296875 294.574219 C 276.445312 294.742188 276.628906 294.878906 276.855469 294.914062 C 277.203125 294.964844 277.488281 294.976562 277.808594 294.789062 C 278.59375 294.324219 278.628906 293.101562 277.808594 292.648438 L 277.773438 292.628906 C 277.453125 292.457031 277.019531 292.410156 276.671875 292.570312 L 276.578125 292.585938 C 275.632812 292.773438 275.550781 294.132812 276.296875 294.574219 "/>
<path style=" stroke:none;fill-rule:nonzero;fill:rgb(100%,87.449646%,0%);fill-opacity:1;" d="M 322.359375 263.707031 C 322.65625 264.152344 323.238281 264.4375 323.738281 264.441406 C 324.621094 264.441406 325.363281 263.703125 325.363281 262.816406 C 325.363281 261.933594 324.621094 261.191406 323.738281 261.191406 C 323.238281 261.191406 322.65625 261.480469 322.359375 261.925781 C 321.917969 262.453125 321.917969 263.179688 322.359375 263.707031 "/>
<path style=" stroke:none;fill-rule:nonzero;fill:rgb(100%,87.449646%,0%);fill-opacity:1;" d="M 327.921875 346.175781 L 328.125 346.128906 C 329.066406 345.898438 329.351562 344.65625 328.6875 343.992188 C 328.023438 343.328125 326.78125 343.613281 326.550781 344.554688 L 326.503906 344.757812 C 326.292969 345.625 327.058594 346.386719 327.921875 346.175781 "/>
<path style=" stroke:none;fill-rule:nonzero;fill:rgb(100%,87.449646%,0%);fill-opacity:1;" d="M 163.441406 352.296875 C 163.710938 352.480469 164.027344 352.589844 164.398438 352.5625 C 165.289062 352.5 166.035156 351.867188 166.035156 350.929688 C 166.035156 349.988281 165.285156 349.355469 164.398438 349.289062 C 164.03125 349.261719 163.710938 349.371094 163.441406 349.558594 C 162.21875 350.078125 162.21875 351.769531 163.441406 352.296875 "/>
<path style=" stroke:none;fill-rule:nonzero;fill:rgb(100%,87.449646%,0%);fill-opacity:1;" d="M 198.246094 313.300781 C 198.246094 314 198.890625 314.6875 199.640625 314.421875 C 200.578125 314.09375 200.84375 313.339844 200.664062 312.40625 C 200.429688 311.234375 198.550781 311.25 198.308594 312.40625 C 198.242188 312.726562 198.214844 313.011719 198.246094 313.300781 "/>
<path style=" stroke:none;fill-rule:nonzero;fill:rgb(100%,87.449646%,0%);fill-opacity:1;" d="M 225.410156 269.269531 C 225.714844 269.929688 226.855469 269.933594 227.15625 269.269531 C 227.273438 269.023438 227.351562 268.785156 227.328125 268.511719 C 227.1875 267.171875 225.378906 267.171875 225.242188 268.511719 C 225.214844 268.785156 225.296875 269.023438 225.410156 269.269531 "/>
<path style=" stroke:none;fill-rule:nonzero;fill:rgb(100%,87.449646%,0%);fill-opacity:1;" d="M 295.960938 260.667969 C 296.121094 260.65625 296.277344 260.644531 296.429688 260.601562 C 297.226562 260.394531 297.226562 259.207031 296.429688 259 C 296.277344 258.957031 296.121094 258.945312 295.960938 258.9375 C 294.84375 258.863281 294.84375 260.734375 295.960938 260.667969 "/>
<path style=" stroke:none;fill-rule:nonzero;fill:rgb(100%,87.449646%,0%);fill-opacity:1;" d="M 314.101562 239.832031 L 318.621094 246.710938 L 313.183594 240.535156 L 306.304688 245.046875 L 312.480469 239.613281 L 307.96875 232.734375 L 313.402344 238.914062 L 320.28125 234.394531 L 314.101562 239.832031 "/>
<path style=" stroke:none;fill-rule:nonzero;fill:rgb(100%,87.449646%,0%);fill-opacity:1;" d="M 176.203125 219.722656 L 178.195312 222.746094 L 175.804688 220.03125 L 172.777344 222.015625 L 175.496094 219.625 L 173.507812 216.601562 L 175.898438 219.320312 L 178.921875 217.328125 L 176.203125 219.722656 "/>
<path style=" stroke:none;fill-rule:nonzero;fill:rgb(100%,87.449646%,0%);fill-opacity:1;" d="M 211.855469 171.753906 L 213.84375 174.78125 L 211.453125 172.0625 L 208.425781 174.050781 L 211.144531 171.660156 L 209.15625 168.632812 L 211.546875 171.347656 L 214.574219 169.367188 L 211.855469 171.753906 "/>
<path style=" stroke:none;fill-rule:nonzero;fill:rgb(100%,87.449646%,0%);fill-opacity:1;" d="M 204.648438 202.304688 C 204.171875 201.828125 203.429688 202.570312 203.910156 203.046875 C 204.386719 203.527344 205.128906 202.785156 204.648438 202.304688 "/>
<path style=" stroke:none;fill-rule:nonzero;fill:rgb(100%,87.449646%,0%);fill-opacity:1;" d="M 266.375 205.957031 C 266.023438 205.605469 265.480469 206.148438 265.832031 206.5 C 266.183594 206.851562 266.726562 206.308594 266.375 205.957031 "/>
<path style=" stroke:none;fill-rule:nonzero;fill:rgb(100%,87.449646%,0%);fill-opacity:1;" d="M 310.125 213.84375 C 309.867188 213.582031 309.457031 213.988281 309.71875 214.25 C 309.980469 214.511719 310.390625 214.101562 310.125 213.84375 "/>
<path style=" stroke:none;fill-rule:nonzero;fill:rgb(100%,87.449646%,0%);fill-opacity:1;" d="M 288.417969 235.554688 C 288.050781 235.179688 287.472656 235.757812 287.847656 236.125 C 288.214844 236.5 288.792969 235.921875 288.417969 235.554688 "/>
<path style=" stroke:none;fill-rule:nonzero;fill:rgb(100%,87.449646%,0%);fill-opacity:1;" d="M 235.925781 182.53125 L 235.859375 182.464844 L 235.828125 182.441406 L 235.652344 182.277344 C 235.25 181.898438 234.667969 182.484375 235.046875 182.886719 L 235.210938 183.058594 L 235.230469 183.089844 L 235.300781 183.15625 C 235.496094 183.367188 235.757812 183.304688 235.910156 183.140625 C 236.078125 182.988281 236.132812 182.730469 235.925781 182.53125 "/>
<path style=" stroke:none;fill-rule:nonzero;fill:rgb(100%,87.449646%,0%);fill-opacity:1;" d="M 283.023438 186.464844 C 282.582031 186.027344 281.90625 186.707031 282.34375 187.144531 C 282.78125 187.582031 283.460938 186.90625 283.023438 186.464844 "/>
<path style=" stroke:none;fill-rule:nonzero;fill:rgb(100%,87.449646%,0%);fill-opacity:1;" d="M 259.945312 175.46875 C 259.835938 175.492188 259.726562 175.5 259.617188 175.484375 C 259.089844 175.425781 258.515625 176 258.570312 176.527344 C 258.589844 176.640625 258.582031 176.746094 258.550781 176.855469 C 258.414062 178.113281 260.136719 178.625 260.921875 177.839844 C 261.714844 177.050781 261.199219 175.328125 259.945312 175.46875 "/>
<path style=" stroke:none;fill-rule:nonzero;fill:rgb(100%,87.449646%,0%);fill-opacity:1;" d="M 177.390625 178.730469 C 177.410156 178.503906 177.378906 178.277344 177.238281 178.089844 C 177.027344 177.808594 176.832031 177.597656 176.476562 177.507812 C 175.59375 177.28125 174.703125 178.117188 174.96875 179.019531 L 174.976562 179.058594 C 175.078125 179.410156 175.351562 179.75 175.710938 179.878906 L 175.789062 179.9375 C 176.597656 180.472656 177.613281 179.566406 177.390625 178.730469 "/>
<path style=" stroke:none;fill-rule:nonzero;fill:rgb(100%,87.449646%,0%);fill-opacity:1;" d="M 168.085938 122.28125 C 168.203125 122.390625 168.324219 122.492188 168.460938 122.570312 C 169.171875 122.988281 170.015625 122.144531 169.597656 121.4375 C 169.515625 121.300781 169.414062 121.179688 169.308594 121.058594 C 168.570312 120.222656 167.246094 121.542969 168.085938 122.28125 "/>
<path style=" stroke:none;fill-rule:nonzero;fill:rgb(100%,87.449646%,0%);fill-opacity:1;" d="M 210.15625 52.574219 C 209.84375 52.105469 209.234375 51.804688 208.710938 51.804688 C 207.789062 51.804688 207.011719 52.582031 207.011719 53.503906 C 207.011719 54.425781 207.789062 55.199219 208.710938 55.199219 C 209.234375 55.199219 209.84375 54.898438 210.15625 54.433594 C 210.613281 53.878906 210.613281 53.125 210.15625 52.574219 "/>
<path style=" stroke:none;fill-rule:nonzero;fill:rgb(100%,87.449646%,0%);fill-opacity:1;" d="M 237.75 55.75 C 237.585938 55.765625 237.421875 55.773438 237.257812 55.816406 C 236.429688 56.035156 236.429688 57.273438 237.257812 57.496094 C 237.421875 57.539062 237.585938 57.546875 237.75 57.558594 C 238.917969 57.632812 238.917969 55.679688 237.75 55.75 "/>
<path style=" stroke:none;fill-rule:nonzero;fill:rgb(100%,87.449646%,0%);fill-opacity:1;" d="M 218.789062 77.53125 L 214.0625 70.339844 L 219.746094 76.796875 L 226.9375 72.078125 L 220.480469 77.757812 L 225.199219 84.945312 L 219.515625 78.488281 L 212.328125 83.210938 L 218.789062 77.53125 "/>
<path style=" stroke:none;fill-rule:nonzero;fill:rgb(100%,87.449646%,0%);fill-opacity:1;" d="M 222.9375 104.699219 C 223.214844 104.972656 223.640625 104.546875 223.367188 104.273438 C 223.089844 103.996094 222.664062 104.425781 222.9375 104.699219 "/>
<path style=" stroke:none;fill-rule:nonzero;fill:rgb(100%,87.449646%,0%);fill-opacity:1;" d="M 245.632812 82.003906 C 246.019531 82.386719 246.621094 81.789062 246.234375 81.402344 C 245.847656 81.011719 245.25 81.613281 245.632812 82.003906 "/>
<path style=" stroke:none;fill-rule:nonzero;fill:rgb(100%,87.449646%,0%);fill-opacity:1;" d="M 235.613281 100.644531 C 235.679688 100.980469 235.828125 101.292969 236.121094 101.546875 C 236.828125 102.15625 237.847656 102.242188 238.539062 101.546875 C 239.238281 100.851562 239.152344 99.832031 238.539062 99.128906 C 238.289062 98.835938 237.976562 98.683594 237.636719 98.617188 C 236.351562 98.101562 235.097656 99.351562 235.613281 100.644531 "/>
<path style=" stroke:none;fill-rule:nonzero;fill:rgb(100%,87.449646%,0%);fill-opacity:1;" d="M 191.25 102.640625 L 193.234375 105.667969 L 190.847656 102.949219 L 187.820312 104.933594 L 190.535156 102.546875 L 188.546875 99.519531 L 190.9375 102.234375 L 193.96875 100.25 L 191.25 102.640625 "/>
<path style=" stroke:none;fill-rule:nonzero;fill:rgb(100%,87.449646%,0%);fill-opacity:1;" d="M 215.316406 113.417969 L 215.25 113.351562 L 215.21875 113.328125 L 215.046875 113.160156 C 214.644531 112.785156 214.058594 113.367188 214.441406 113.769531 L 214.601562 113.945312 L 214.625 113.972656 L 214.691406 114.039062 C 214.890625 114.25 215.148438 114.191406 215.300781 114.027344 C 215.46875 113.871094 215.527344 113.617188 215.316406 113.417969 "/>
<path style=" stroke:none;fill-rule:nonzero;fill:rgb(100%,87.449646%,0%);fill-opacity:1;" d="M 262.414062 117.351562 C 261.976562 116.910156 261.296875 117.589844 261.738281 118.03125 C 262.171875 118.464844 262.851562 117.789062 262.414062 117.351562 "/>
<path style=" stroke:none;fill-rule:nonzero;fill:rgb(100%,87.449646%,0%);fill-opacity:1;" d="M 239.335938 106.355469 C 239.226562 106.378906 239.121094 106.386719 239.011719 106.367188 C 238.480469 106.3125 237.90625 106.886719 237.964844 107.414062 C 237.980469 107.523438 237.976562 107.632812 237.945312 107.742188 C 237.808594 109 239.527344 109.511719 240.316406 108.726562 C 241.105469 107.933594 240.589844 106.214844 239.335938 106.355469 "/>
<path style=" stroke:none;fill-rule:nonzero;fill:rgb(100%,87.449646%,0%);fill-opacity:1;" d="M 156.785156 109.617188 C 156.800781 109.390625 156.769531 109.160156 156.632812 108.976562 C 156.421875 108.695312 156.226562 108.484375 155.867188 108.394531 C 154.988281 108.167969 154.09375 109.003906 154.355469 109.902344 L 154.367188 109.945312 C 154.46875 110.296875 154.742188 110.636719 155.097656 110.765625 L 155.179688 110.824219 C 155.984375 111.359375 157 110.453125 156.785156 109.617188 "/>
<path style=" stroke:none;fill-rule:nonzero;fill:rgb(100%,87.449646%,0%);fill-opacity:1;" d="M 97.546875 362.082031 C 97.667969 362.183594 97.785156 362.289062 97.921875 362.367188 C 98.632812 362.78125 99.472656 361.941406 99.0625 361.230469 C 98.980469 361.09375 98.871094 360.976562 98.769531 360.859375 C 98.035156 360.019531 96.707031 361.34375 97.546875 362.082031 "/>
<path style=" stroke:none;fill-rule:nonzero;fill:rgb(100%,87.449646%,0%);fill-opacity:1;" d="M 139.617188 292.367188 C 139.304688 291.902344 138.695312 291.601562 138.171875 291.601562 C 137.25 291.601562 136.476562 292.375 136.476562 293.296875 C 136.476562 294.226562 137.25 294.996094 138.171875 294.996094 C 138.695312 294.996094 139.304688 294.699219 139.617188 294.230469 C 140.074219 293.675781 140.074219 292.921875 139.617188 292.367188 "/>
<path style=" stroke:none;fill-rule:nonzero;fill:rgb(100%,87.449646%,0%);fill-opacity:1;" d="M 167.210938 295.546875 C 167.046875 295.558594 166.878906 295.570312 166.71875 295.609375 C 165.886719 295.828125 165.886719 297.074219 166.71875 297.292969 C 166.878906 297.335938 167.046875 297.34375 167.210938 297.355469 C 168.375 297.429688 168.375 295.472656 167.210938 295.546875 "/>
<path style=" stroke:none;fill-rule:nonzero;fill:rgb(100%,87.449646%,0%);fill-opacity:1;" d="M 148.246094 317.328125 L 143.523438 310.136719 L 149.207031 316.59375 L 156.390625 311.871094 L 149.9375 317.554688 L 154.65625 324.742188 L 148.976562 318.285156 L 141.789062 323.007812 L 148.246094 317.328125 "/>
<path style=" stroke:none;fill-rule:nonzero;fill:rgb(100%,87.449646%,0%);fill-opacity:1;" d="M 152.402344 344.492188 C 152.675781 344.765625 153.101562 344.34375 152.828125 344.070312 C 152.554688 343.792969 152.128906 344.21875 152.402344 344.492188 "/>
<path style=" stroke:none;fill-rule:nonzero;fill:rgb(100%,87.449646%,0%);fill-opacity:1;" d="M 175.097656 321.796875 C 175.484375 322.1875 176.082031 321.582031 175.695312 321.195312 C 175.308594 320.808594 174.703125 321.410156 175.097656 321.796875 "/>
<path style=" stroke:none;fill-rule:nonzero;fill:rgb(100%,87.449646%,0%);fill-opacity:1;" d="M 165.070312 340.4375 C 165.136719 340.777344 165.289062 341.089844 165.582031 341.34375 C 166.289062 341.957031 167.308594 342.039062 168.003906 341.34375 C 168.699219 340.648438 168.613281 339.628906 168.003906 338.921875 C 167.75 338.632812 167.4375 338.480469 167.097656 338.414062 C 165.808594 337.898438 164.558594 339.148438 165.070312 340.4375 "/>
<path style=" stroke:none;fill-rule:nonzero;fill:rgb(100%,87.449646%,0%);fill-opacity:1;" d="M 120.707031 342.4375 L 122.695312 345.460938 L 120.300781 342.746094 L 117.277344 344.730469 L 119.996094 342.339844 L 118.007812 339.316406 L 120.402344 342.035156 L 123.421875 340.046875 L 120.707031 342.4375 "/>
<path style=" stroke:none;fill-rule:nonzero;fill:rgb(100%,87.449646%,0%);fill-opacity:1;" d="M 144.777344 353.210938 L 144.714844 353.144531 L 144.683594 353.121094 L 144.503906 352.957031 C 144.101562 352.578125 143.519531 353.164062 143.898438 353.566406 L 144.0625 353.738281 L 144.085938 353.773438 L 144.15625 353.835938 C 144.351562 354.046875 144.609375 353.988281 144.761719 353.824219 C 144.925781 353.667969 144.988281 353.410156 144.777344 353.210938 "/>
<path style=" stroke:none;fill-rule:nonzero;fill:rgb(100%,87.449646%,0%);fill-opacity:1;" d="M 191.875 357.144531 C 191.4375 356.707031 190.757812 357.386719 191.195312 357.824219 C 191.636719 358.265625 192.316406 357.585938 191.875 357.144531 "/>
<path style=" stroke:none;fill-rule:nonzero;fill:rgb(100%,87.449646%,0%);fill-opacity:1;" d="M 168.796875 346.148438 C 168.683594 346.175781 168.582031 346.183594 168.46875 346.164062 C 167.9375 346.109375 167.371094 346.683594 167.421875 347.207031 C 167.441406 347.320312 167.4375 347.429688 167.40625 347.539062 C 167.265625 348.792969 168.992188 349.308594 169.777344 348.519531 C 170.566406 347.730469 170.054688 346.007812 168.796875 346.148438 "/>
<path style=" stroke:none;fill-rule:nonzero;fill:rgb(100%,87.449646%,0%);fill-opacity:1;" d="M 86.242188 349.410156 C 86.257812 349.183594 86.230469 348.960938 86.09375 348.773438 C 85.878906 348.492188 85.6875 348.28125 85.328125 348.1875 C 84.445312 347.960938 83.554688 348.796875 83.816406 349.699219 L 83.828125 349.738281 C 83.933594 350.089844 84.207031 350.429688 84.558594 350.558594 L 84.640625 350.617188 C 85.445312 351.152344 86.460938 350.25 86.242188 349.410156 "/>
<path style=" stroke:none;fill-rule:nonzero;fill:rgb(100%,87.449646%,0%);fill-opacity:1;" d="M 149.96875 302.949219 C 150.085938 303.054688 150.207031 303.15625 150.347656 303.238281 C 151.054688 303.65625 151.898438 302.8125 151.484375 302.105469 C 151.402344 301.964844 151.296875 301.847656 151.191406 301.726562 C 150.457031 300.890625 149.128906 302.210938 149.96875 302.949219 "/>
<path style=" stroke:none;fill-rule:nonzero;fill:rgb(100%,87.449646%,0%);fill-opacity:1;" d="M 192.039062 233.238281 C 191.726562 232.773438 191.117188 232.472656 190.59375 232.472656 C 189.671875 232.472656 188.894531 233.246094 188.894531 234.171875 C 188.894531 235.097656 189.671875 235.867188 190.59375 235.867188 C 191.117188 235.867188 191.726562 235.570312 192.039062 235.101562 C 192.496094 234.546875 192.496094 233.796875 192.039062 233.238281 "/>
<path style=" stroke:none;fill-rule:nonzero;fill:rgb(100%,87.449646%,0%);fill-opacity:1;" d="M 219.632812 236.417969 C 219.46875 236.429688 219.300781 236.441406 219.140625 236.480469 C 218.3125 236.699219 218.3125 237.945312 219.140625 238.164062 C 219.300781 238.207031 219.46875 238.214844 219.632812 238.226562 C 220.800781 238.300781 220.800781 236.34375 219.632812 236.417969 "/>
<path style=" stroke:none;fill-rule:nonzero;fill:rgb(100%,87.449646%,0%);fill-opacity:1;" d="M 200.667969 258.199219 L 195.945312 251.011719 L 201.628906 257.46875 L 208.820312 252.746094 L 202.363281 258.421875 L 207.082031 265.617188 L 201.402344 259.160156 L 194.210938 263.878906 L 200.667969 258.199219 "/>
<path style=" stroke:none;fill-rule:nonzero;fill:rgb(100%,87.449646%,0%);fill-opacity:1;" d="M 204.824219 285.363281 C 205.097656 285.640625 205.523438 285.210938 205.25 284.9375 C 204.972656 284.664062 204.550781 285.089844 204.824219 285.363281 "/>
<path style=" stroke:none;fill-rule:nonzero;fill:rgb(100%,87.449646%,0%);fill-opacity:1;" d="M 227.519531 262.667969 C 227.902344 263.054688 228.503906 262.453125 228.117188 262.070312 C 227.730469 261.683594 227.132812 262.28125 227.519531 262.667969 "/>
<path style=" stroke:none;fill-rule:nonzero;fill:rgb(100%,87.449646%,0%);fill-opacity:1;" d="M 217.496094 281.308594 C 217.5625 281.648438 217.710938 281.960938 218.003906 282.214844 C 218.710938 282.828125 219.730469 282.910156 220.425781 282.214844 C 221.121094 281.519531 221.035156 280.5 220.425781 279.792969 C 220.171875 279.5 219.859375 279.351562 219.519531 279.285156 C 218.234375 278.769531 216.980469 280.019531 217.496094 281.308594 "/>
<path style=" stroke:none;fill-rule:nonzero;fill:rgb(100%,87.449646%,0%);fill-opacity:1;" d="M 173.132812 283.308594 L 175.117188 286.332031 L 172.730469 283.617188 L 169.699219 285.605469 L 172.417969 283.210938 L 170.429688 280.183594 L 172.820312 282.902344 L 175.847656 280.917969 L 173.132812 283.308594 "/>
<path style=" stroke:none;fill-rule:nonzero;fill:rgb(100%,87.449646%,0%);fill-opacity:1;" d="M 197.199219 294.085938 L 197.132812 294.015625 L 197.105469 293.996094 L 196.925781 293.832031 C 196.527344 293.449219 195.941406 294.035156 196.324219 294.4375 L 196.484375 294.609375 L 196.507812 294.644531 L 196.574219 294.707031 C 196.773438 294.917969 197.03125 294.859375 197.1875 294.695312 C 197.351562 294.539062 197.410156 294.28125 197.199219 294.085938 "/>
<path style=" stroke:none;fill-rule:nonzero;fill:rgb(100%,87.449646%,0%);fill-opacity:1;" d="M 244.296875 298.015625 C 243.859375 297.578125 243.179688 298.257812 243.621094 298.695312 C 244.054688 299.136719 244.738281 298.457031 244.296875 298.015625 "/>
<path style=" stroke:none;fill-rule:nonzero;fill:rgb(100%,87.449646%,0%);fill-opacity:1;" d="M 221.21875 287.019531 C 221.109375 287.046875 221 287.050781 220.894531 287.035156 C 220.363281 286.980469 219.789062 287.554688 219.847656 288.082031 C 219.863281 288.191406 219.859375 288.300781 219.828125 288.40625 C 219.691406 289.664062 221.414062 290.179688 222.199219 289.390625 C 222.992188 288.605469 222.476562 286.878906 221.21875 287.019531 "/>
<path style=" stroke:none;fill-rule:nonzero;fill:rgb(100%,87.449646%,0%);fill-opacity:1;" d="M 138.667969 290.285156 C 138.683594 290.054688 138.652344 289.832031 138.515625 289.644531 C 138.300781 289.359375 138.109375 289.152344 137.75 289.0625 C 136.871094 288.832031 135.976562 289.671875 136.238281 290.574219 L 136.25 290.613281 C 136.355469 290.960938 136.628906 291.300781 136.984375 291.429688 L 137.0625 291.488281 C 137.867188 292.023438 138.882812 291.121094 138.667969 290.285156 "/>
<path style=" stroke:none;fill-rule:nonzero;fill:rgb(100%,87.449646%,0%);fill-opacity:1;" d="M 123.003906 167.980469 C 123.105469 167.457031 122.894531 166.84375 122.539062 166.488281 C 121.914062 165.859375 120.871094 165.859375 120.246094 166.488281 C 119.621094 167.113281 119.621094 168.15625 120.246094 168.78125 C 120.601562 169.136719 121.214844 169.347656 121.742188 169.238281 C 122.425781 169.175781 122.9375 168.667969 123.003906 167.980469 "/>
<path style=" stroke:none;fill-rule:nonzero;fill:rgb(100%,87.449646%,0%);fill-opacity:1;" d="M 301.480469 181.746094 C 301.132812 181.378906 300.707031 181.242188 300.210938 181.320312 C 300.0625 181.34375 299.871094 181.410156 299.75 181.480469 C 299.515625 181.617188 299.472656 181.777344 299.328125 181.953125 C 298.992188 182.390625 299.03125 182.914062 299.503906 183.238281 C 299.742188 183.398438 299.734375 183.457031 300.015625 183.527344 C 300.609375 183.683594 300.222656 183.566406 300.132812 183.515625 C 301.261719 184.109375 302.351562 182.683594 301.480469 181.746094 "/>
<path style=" stroke:none;fill-rule:nonzero;fill:rgb(100%,87.449646%,0%);fill-opacity:1;" d="M 298.007812 217.722656 C 297.941406 217.398438 297.796875 217.097656 297.515625 216.855469 C 296.84375 216.273438 295.863281 216.191406 295.199219 216.855469 C 294.539062 217.523438 294.621094 218.496094 295.199219 219.171875 C 295.449219 219.453125 295.742188 219.597656 296.070312 219.660156 C 297.300781 220.152344 298.496094 218.953125 298.007812 217.722656 "/>
<path style=" stroke:none;fill-rule:nonzero;fill:rgb(100%,87.449646%,0%);fill-opacity:1;" d="M 245.824219 220.683594 C 246.320312 220.1875 246.347656 219.25 245.628906 218.90625 C 244.738281 218.472656 244.015625 218.820312 243.488281 219.605469 C 242.820312 220.601562 244.160156 221.917969 245.148438 221.269531 C 245.421875 221.09375 245.648438 220.90625 245.824219 220.683594 "/>
<path style=" stroke:none;fill-rule:nonzero;fill:rgb(100%,87.449646%,0%);fill-opacity:1;" d="M 195.488281 232.605469 C 195.738281 231.921875 194.933594 231.117188 194.246094 231.367188 C 193.992188 231.464844 193.769531 231.574219 193.597656 231.789062 C 192.746094 232.835938 194.023438 234.113281 195.066406 233.261719 C 195.28125 233.085938 195.390625 232.863281 195.488281 232.605469 "/>
<path style=" stroke:none;fill-rule:nonzero;fill:rgb(100%,87.449646%,0%);fill-opacity:1;" d="M 139.515625 188.800781 C 139.398438 188.691406 139.28125 188.59375 139.140625 188.511719 C 138.429688 188.09375 137.589844 188.9375 138 189.648438 C 138.085938 189.785156 138.1875 189.902344 138.292969 190.023438 C 139.03125 190.859375 140.351562 189.539062 139.515625 188.800781 "/>
<path style=" stroke:none;fill-rule:nonzero;fill:rgb(100%,87.449646%,0%);fill-opacity:1;" d="M 19.875 259.597656 L 16.167969 258.832031 L 19.945312 259.074219 L 20.710938 255.363281 L 20.472656 259.140625 L 24.175781 259.914062 L 20.402344 259.667969 L 19.632812 263.378906 L 19.875 259.597656 "/>
<path style=" stroke:none;fill-rule:nonzero;fill:rgb(100%,87.449646%,0%);fill-opacity:1;" d="M 28.976562 321.410156 L 25.269531 320.640625 L 29.046875 320.882812 L 29.8125 317.175781 L 29.574219 320.957031 L 33.277344 321.71875 L 29.5 321.480469 L 28.734375 325.183594 L 28.976562 321.410156 "/>
<path style=" stroke:none;fill-rule:nonzero;fill:rgb(100%,87.449646%,0%);fill-opacity:1;" d="M 29.667969 355.253906 L 29.902344 355.210938 C 30.171875 355.15625 30.171875 354.726562 29.902344 354.671875 L 29.667969 354.628906 C 29.140625 354.542969 29.140625 355.339844 29.667969 355.253906 "/>
<path style=" stroke:none;fill-rule:nonzero;fill:rgb(100%,87.449646%,0%);fill-opacity:1;" d="M 69.5 299.78125 C 70.175781 299.78125 70.175781 298.734375 69.5 298.734375 C 68.824219 298.734375 68.824219 299.78125 69.5 299.78125 "/>
<path style=" stroke:none;fill-rule:nonzero;fill:rgb(100%,87.449646%,0%);fill-opacity:1;" d="M 11.722656 293.5 C 12.429688 293.5 12.429688 292.40625 11.722656 292.40625 C 11.011719 292.40625 11.011719 293.5 11.722656 293.5 "/>
<path style=" stroke:none;fill-rule:nonzero;fill:rgb(100%,87.449646%,0%);fill-opacity:1;" d="M 43.589844 322.4375 C 44.125 322.4375 44.125 321.601562 43.589844 321.601562 C 43.050781 321.605469 43.050781 322.4375 43.589844 322.4375 "/>
<path style=" stroke:none;fill-rule:nonzero;fill:rgb(100%,87.449646%,0%);fill-opacity:1;" d="M 100.742188 313.882812 C 100.890625 313.847656 101.015625 313.828125 101.125 313.722656 L 101.125 313.503906 C 101.015625 313.402344 100.890625 313.382812 100.742188 313.347656 C 100.292969 313.234375 100.292969 313.992188 100.742188 313.882812 "/>
<path style=" stroke:none;fill-rule:nonzero;fill:rgb(100%,87.449646%,0%);fill-opacity:1;" d="M 3.21875 331.234375 L 3.316406 331.238281 L 3.355469 331.230469 L 3.609375 331.226562 C 4.1875 331.207031 4.1875 330.347656 3.609375 330.328125 L 3.355469 330.320312 L 3.316406 330.3125 L 3.21875 330.316406 C 2.917969 330.304688 2.773438 330.539062 2.78125 330.773438 C 2.773438 331.011719 2.917969 331.242188 3.21875 331.234375 "/>
<path style=" stroke:none;fill-rule:nonzero;fill:rgb(100%,87.449646%,0%);fill-opacity:1;" d="M 53.324219 368.714844 C 53.75 368.800781 54.136719 368.847656 54.5625 368.722656 C 55.066406 368.578125 55.585938 368.140625 55.683594 367.605469 L 55.691406 367.546875 C 55.824219 367.277344 55.882812 366.988281 55.761719 366.660156 C 55.636719 366.320312 55.425781 366.09375 55.15625 365.949219 C 54.644531 365.511719 53.972656 365.542969 53.324219 365.679688 C 51.828125 365.988281 51.808594 368.417969 53.324219 368.714844 "/>
<path style=" stroke:none;fill-rule:nonzero;fill:rgb(100%,87.449646%,0%);fill-opacity:1;" d="M 74.644531 316.523438 L 74.730469 316.613281 C 75.113281 317.011719 75.796875 317.011719 76.179688 316.613281 L 76.261719 316.523438 C 76.949219 315.808594 76.46875 314.574219 75.457031 314.574219 C 74.441406 314.574219 73.960938 315.808594 74.644531 316.523438 "/>
<path style=" stroke:none;fill-rule:nonzero;fill:rgb(100%,87.449646%,0%);fill-opacity:1;" d="M 49.292969 290.777344 C 49.453125 290.957031 49.644531 291.097656 49.878906 291.132812 C 50.246094 291.1875 50.542969 291.199219 50.878906 291 C 51.699219 290.515625 51.734375 289.238281 50.878906 288.765625 L 50.835938 288.746094 C 50.503906 288.5625 50.050781 288.515625 49.691406 288.683594 L 49.585938 288.695312 C 48.59375 288.894531 48.519531 290.316406 49.292969 290.777344 "/>
<path style=" stroke:none;fill-rule:nonzero;fill:rgb(100%,87.449646%,0%);fill-opacity:1;" d="M 97.445312 258.507812 C 97.757812 258.976562 98.367188 259.277344 98.890625 259.277344 C 99.8125 259.277344 100.585938 258.503906 100.589844 257.578125 C 100.589844 256.65625 99.8125 255.882812 98.890625 255.882812 C 98.367188 255.882812 97.757812 256.179688 97.441406 256.652344 C 96.988281 257.203125 96.988281 257.953125 97.445312 258.507812 "/>
<path style=" stroke:none;fill-rule:nonzero;fill:rgb(100%,87.449646%,0%);fill-opacity:1;" d="M 69.851562 255.332031 C 70.019531 255.320312 70.183594 255.308594 70.34375 255.269531 C 71.175781 255.046875 71.175781 253.804688 70.34375 253.585938 C 70.183594 253.542969 70.019531 253.535156 69.851562 253.527344 C 68.683594 253.453125 68.683594 255.40625 69.851562 255.332031 "/>
<path style=" stroke:none;fill-rule:nonzero;fill:rgb(100%,87.449646%,0%);fill-opacity:1;" d="M 38.921875 198.140625 C 38.554688 197.777344 37.992188 198.34375 38.355469 198.710938 C 38.71875 199.078125 39.289062 198.507812 38.921875 198.140625 "/>
<path style=" stroke:none;fill-rule:nonzero;fill:rgb(100%,87.449646%,0%);fill-opacity:1;" d="M 84.664062 206.382812 C 84.386719 206.109375 83.960938 206.539062 84.234375 206.8125 C 84.511719 207.085938 84.933594 206.660156 84.664062 206.382812 "/>
<path style=" stroke:none;fill-rule:nonzero;fill:rgb(100%,87.449646%,0%);fill-opacity:1;" d="M 61.96875 229.078125 C 61.582031 228.695312 60.980469 229.292969 61.367188 229.679688 C 61.753906 230.070312 62.355469 229.464844 61.96875 229.078125 "/>
<path style=" stroke:none;fill-rule:nonzero;fill:rgb(100%,87.449646%,0%);fill-opacity:1;" d="M 7.089844 173.652344 L 7.027344 173.585938 L 6.992188 173.558594 L 6.804688 173.386719 C 6.386719 172.988281 5.78125 173.597656 6.175781 174.023438 L 6.34375 174.203125 L 6.371094 174.238281 L 6.441406 174.304688 C 6.648438 174.527344 6.917969 174.464844 7.078125 174.292969 C 7.253906 174.128906 7.3125 173.859375 7.089844 173.652344 "/>
<path style=" stroke:none;fill-rule:nonzero;fill:rgb(100%,87.449646%,0%);fill-opacity:1;" d="M 56.324219 177.765625 C 55.867188 177.304688 55.160156 178.015625 55.617188 178.476562 C 56.078125 178.933594 56.789062 178.222656 56.324219 177.765625 "/>
<path style=" stroke:none;fill-rule:nonzero;fill:rgb(100%,87.449646%,0%);fill-opacity:1;" d="M 32.203125 166.265625 C 32.089844 166.296875 31.972656 166.304688 31.859375 166.285156 C 31.308594 166.226562 30.707031 166.824219 30.765625 167.378906 C 30.785156 167.492188 30.777344 167.605469 30.75 167.722656 C 30.605469 169.03125 32.402344 169.574219 33.226562 168.746094 C 34.050781 167.921875 33.515625 166.121094 32.203125 166.265625 "/>
<path style=" stroke:none;fill-rule:nonzero;fill:rgb(100%,87.449646%,0%);fill-opacity:1;" d="M 75.621094 172.835938 C 75.257812 172.445312 74.816406 172.300781 74.292969 172.382812 C 74.136719 172.410156 73.945312 172.484375 73.816406 172.558594 C 73.566406 172.699219 73.523438 172.863281 73.375 173.050781 C 73.019531 173.507812 73.058594 174.054688 73.554688 174.390625 C 73.804688 174.558594 73.800781 174.617188 74.09375 174.695312 C 74.710938 174.859375 74.304688 174.734375 74.210938 174.683594 C 75.394531 175.296875 76.53125 173.808594 75.621094 172.835938 "/>
<path style=" stroke:none;fill-rule:nonzero;fill:rgb(100%,87.449646%,0%);fill-opacity:1;" d="M 71.992188 210.4375 C 71.925781 210.101562 71.773438 209.789062 71.480469 209.535156 C 70.773438 208.925781 69.757812 208.839844 69.0625 209.535156 C 68.363281 210.230469 68.449219 211.25 69.0625 211.957031 C 69.3125 212.246094 69.625 212.402344 69.964844 212.46875 C 71.253906 212.980469 72.503906 211.726562 71.992188 210.4375 "/>
<path style=" stroke:none;fill-rule:nonzero;fill:rgb(100%,87.449646%,0%);fill-opacity:1;" d="M 359.046875 264.296875 L 362.59375 263.566406 L 358.976562 263.792969 L 358.246094 260.253906 L 358.472656 263.863281 L 354.933594 264.601562 L 358.539062 264.367188 L 359.277344 267.914062 L 359.046875 264.296875 "/>
<path style=" stroke:none;fill-rule:nonzero;fill:rgb(100%,87.449646%,0%);fill-opacity:1;" d="M 350.339844 323.425781 L 353.886719 322.691406 L 350.269531 322.925781 L 349.539062 319.382812 L 349.769531 322.996094 L 346.226562 323.726562 L 349.835938 323.496094 L 350.570312 327.039062 L 350.339844 323.425781 "/>
<path style=" stroke:none;fill-rule:nonzero;fill:rgb(100%,87.449646%,0%);fill-opacity:1;" d="M 349.675781 355.804688 L 349.449219 355.765625 C 349.195312 355.707031 349.195312 355.296875 349.449219 355.242188 L 349.675781 355.207031 C 350.179688 355.125 350.179688 355.886719 349.675781 355.804688 "/>
<path style=" stroke:none;fill-rule:nonzero;fill:rgb(100%,87.449646%,0%);fill-opacity:1;" d="M 366.84375 296.730469 C 366.167969 296.730469 366.167969 295.679688 366.84375 295.679688 C 367.519531 295.679688 367.519531 296.730469 366.84375 296.730469 "/>
<path style=" stroke:none;fill-rule:nonzero;fill:rgb(100%,87.449646%,0%);fill-opacity:1;" d="M 336.359375 324.414062 C 335.847656 324.414062 335.847656 323.617188 336.359375 323.617188 C 336.875 323.617188 336.875 324.414062 336.359375 324.414062 "/>
<path style=" stroke:none;fill-rule:nonzero;fill:rgb(100%,87.449646%,0%);fill-opacity:1;" d="M 374.976562 332.828125 L 374.886719 332.832031 L 374.84375 332.824219 L 374.609375 332.816406 C 374.054688 332.796875 374.054688 331.976562 374.609375 331.960938 L 374.84375 331.953125 L 374.886719 331.945312 L 374.976562 331.949219 C 375.269531 331.9375 375.40625 332.164062 375.398438 332.386719 C 375.40625 332.613281 375.269531 332.839844 374.976562 332.828125 "/>
<path style=" stroke:none;fill-rule:nonzero;fill:rgb(100%,87.449646%,0%);fill-opacity:1;" d="M 330.902344 294.121094 C 330.753906 294.296875 330.570312 294.433594 330.34375 294.464844 C 329.992188 294.519531 329.707031 294.527344 329.386719 294.339844 C 328.605469 293.878906 328.5625 292.65625 329.386719 292.203125 L 329.425781 292.183594 C 329.742188 292.003906 330.179688 291.957031 330.523438 292.125 L 330.625 292.136719 C 331.570312 292.328125 331.648438 293.6875 330.902344 294.121094 "/>
<path style=" stroke:none;fill-rule:nonzero;fill:rgb(100%,87.449646%,0%);fill-opacity:1;" d="M 372.917969 147.949219 L 373.109375 147.816406 C 373.328125 147.671875 373.617188 147.960938 373.46875 148.179688 L 373.34375 148.367188 C 373.046875 148.777344 372.511719 148.242188 372.917969 147.949219 "/>
<path style=" stroke:none;fill-rule:nonzero;fill:rgb(100%,87.449646%,0%);fill-opacity:1;" d="M 340.824219 205.511719 C 341.175781 205.160156 341.71875 205.703125 341.367188 206.054688 C 341.015625 206.40625 340.476562 205.863281 340.824219 205.511719 "/>
<path style=" stroke:none;fill-rule:nonzero;fill:rgb(100%,87.449646%,0%);fill-opacity:1;" d="M 343.464844 146.367188 C 343.621094 146.375 343.777344 146.386719 343.941406 146.394531 C 344.148438 146.40625 344.148438 146.710938 343.9375 146.722656 L 343.464844 146.75 C 343.214844 146.765625 343.214844 146.351562 343.464844 146.367188 "/>
<path style=" stroke:none;fill-rule:nonzero;fill:rgb(100%,87.449646%,0%);fill-opacity:1;" d="M 371.273438 182.082031 L 371.339844 182.015625 L 371.367188 181.996094 L 371.546875 181.828125 C 371.949219 181.449219 372.527344 182.03125 372.152344 182.4375 L 371.984375 182.613281 L 371.96875 182.644531 L 371.898438 182.703125 C 371.699219 182.917969 371.441406 182.855469 371.289062 182.695312 C 371.125 182.539062 371.0625 182.285156 371.273438 182.082031 "/>
<path style=" stroke:none;fill-rule:nonzero;fill:rgb(100%,87.449646%,0%);fill-opacity:1;" d="M 347.257812 175.015625 C 347.363281 175.046875 347.472656 175.050781 347.582031 175.035156 C 348.105469 174.976562 348.683594 175.554688 348.628906 176.082031 C 348.609375 176.191406 348.613281 176.300781 348.644531 176.410156 C 348.78125 177.664062 347.0625 178.179688 346.273438 177.390625 C 345.484375 176.601562 345.996094 174.878906 347.257812 175.015625 "/>
<path style=" stroke:none;fill-rule:nonzero;fill:rgb(100%,87.449646%,0%);fill-opacity:1;" d="M 361.375 220.234375 C 360.878906 219.742188 360.847656 218.800781 361.570312 218.457031 C 362.464844 218.027344 363.183594 218.375 363.710938 219.15625 C 364.375 220.152344 363.039062 221.46875 362.046875 220.820312 C 361.777344 220.640625 361.554688 220.460938 361.375 220.234375 "/>
<path style=" stroke:none;fill-rule:nonzero;fill:rgb(100%,87.449646%,0%);fill-opacity:1;" d="M 360.03125 26.671875 L 351.613281 28.414062 L 360.195312 27.867188 L 361.9375 36.289062 L 361.390625 27.703125 L 369.8125 25.957031 L 361.230469 26.507812 L 359.488281 18.085938 L 360.03125 26.671875 "/>
<path style=" stroke:none;fill-rule:nonzero;fill:rgb(100%,87.449646%,0%);fill-opacity:1;" d="M 348.488281 79.96875 C 349.167969 79.96875 349.167969 81.019531 348.488281 81.019531 C 347.8125 81.019531 347.8125 79.96875 348.488281 79.96875 "/>
<path style=" stroke:none;fill-rule:nonzero;fill:rgb(100%,87.449646%,0%);fill-opacity:1;" d="M 366 1.9375 C 366.179688 1.953125 366.371094 1.957031 366.523438 2.066406 C 366.703125 2.191406 366.820312 2.453125 366.679688 2.660156 L 366.511719 2.90625 C 366.4375 3.003906 366.261719 3 366.183594 2.90625 L 366.105469 2.832031 L 366 2.851562 C 365.40625 2.890625 365.414062 1.894531 366 1.9375 "/>
<path style=" stroke:none;fill-rule:nonzero;fill:rgb(100%,87.449646%,0%);fill-opacity:1;" d="M 332.3125 11.035156 C 332.738281 10.949219 333.121094 10.902344 333.554688 11.023438 C 334.050781 11.171875 334.574219 11.601562 334.667969 12.144531 L 334.679688 12.203125 C 334.808594 12.472656 334.867188 12.761719 334.746094 13.089844 C 334.625 13.425781 334.414062 13.65625 334.144531 13.804688 C 333.636719 14.242188 332.964844 14.203125 332.3125 14.070312 C 330.8125 13.765625 330.792969 11.328125 332.3125 11.035156 "/>
<path style=" stroke:none;fill-rule:nonzero;fill:rgb(100%,87.449646%,0%);fill-opacity:1;" d="M 353.636719 63.226562 L 353.722656 63.136719 C 354.097656 62.742188 354.785156 62.742188 355.164062 63.136719 L 355.25 63.226562 C 355.933594 63.9375 355.457031 65.175781 354.441406 65.175781 C 353.429688 65.175781 352.949219 63.9375 353.636719 63.226562 "/>
<path style=" stroke:none;fill-rule:nonzero;fill:rgb(100%,87.449646%,0%);fill-opacity:1;" d="M 328.285156 88.972656 C 328.4375 88.792969 328.628906 88.648438 328.867188 88.613281 C 329.234375 88.5625 329.53125 88.550781 329.863281 88.746094 C 330.683594 89.230469 330.726562 90.511719 329.863281 90.984375 L 329.828125 91.003906 C 329.496094 91.1875 329.035156 91.238281 328.679688 91.066406 L 328.574219 91.050781 C 327.585938 90.851562 327.503906 89.429688 328.285156 88.972656 "/>
<path style=" stroke:none;fill-rule:nonzero;fill:rgb(100%,87.449646%,0%);fill-opacity:1;" d="M 348.839844 124.417969 C 349.003906 124.429688 349.171875 124.4375 349.328125 124.484375 C 350.160156 124.699219 350.160156 125.941406 349.328125 126.160156 C 349.171875 126.203125 349.003906 126.214844 348.839844 126.226562 C 347.675781 126.300781 347.675781 124.34375 348.839844 124.417969 "/>
<path style=" stroke:none;fill-rule:nonzero;fill:rgb(100%,87.449646%,0%);fill-opacity:1;" d="M 367.804688 146.195312 L 372.523438 139.007812 L 366.84375 145.464844 L 359.65625 140.742188 L 366.113281 146.425781 L 361.390625 153.613281 L 367.074219 147.15625 L 374.261719 151.882812 L 367.804688 146.195312 "/>
<path style=" stroke:none;fill-rule:nonzero;fill:rgb(100%,87.449646%,0%);fill-opacity:1;" d="M 363.648438 173.363281 C 363.375 173.640625 362.949219 173.210938 363.222656 172.9375 C 363.496094 172.664062 363.921875 173.089844 363.648438 173.363281 "/>
<path style=" stroke:none;fill-rule:nonzero;fill:rgb(100%,87.449646%,0%);fill-opacity:1;" d="M 340.957031 150.667969 C 340.566406 151.054688 339.96875 150.457031 340.359375 150.066406 C 340.742188 149.679688 341.34375 150.277344 340.957031 150.667969 "/>
<path style=" stroke:none;fill-rule:nonzero;fill:rgb(100%,87.449646%,0%);fill-opacity:1;" d="M 335.316406 201.988281 C 334.859375 202.441406 334.148438 201.730469 334.605469 201.273438 C 335.066406 200.816406 335.773438 201.527344 335.316406 201.988281 "/>
<path style=" stroke:none;fill-rule:nonzero;fill:rgb(100%,87.449646%,0%);fill-opacity:1;" d="M 354.605469 206.917969 C 354.246094 207.304688 353.800781 207.441406 353.28125 207.363281 C 353.125 207.339844 352.933594 207.269531 352.800781 207.195312 C 352.554688 207.050781 352.511719 206.886719 352.363281 206.695312 C 352.007812 206.242188 352.046875 205.695312 352.542969 205.355469 C 352.789062 205.191406 352.785156 205.128906 353.082031 205.054688 C 353.703125 204.886719 353.296875 205.015625 353.199219 205.0625 C 354.386719 204.449219 355.515625 205.941406 354.605469 206.917969 "/>
<path style=" stroke:none;fill-rule:nonzero;fill:rgb(100%,87.449646%,0%);fill-opacity:1;" d="M 350.976562 169.304688 C 350.914062 169.644531 350.761719 169.960938 350.46875 170.214844 C 349.761719 170.824219 348.742188 170.910156 348.046875 170.214844 C 347.347656 169.519531 347.433594 168.5 348.046875 167.796875 C 348.296875 167.503906 348.613281 167.347656 348.957031 167.285156 C 350.242188 166.773438 351.488281 168.019531 350.976562 169.304688 "/>
<path style=" stroke:none;fill-rule:nonzero;fill:rgb(100%,87.449646%,0%);fill-opacity:1;" d="M 17.441406 213.535156 C 17.960938 213.015625 17.992188 212.039062 17.242188 211.675781 C 16.304688 211.226562 15.550781 211.585938 15 212.40625 C 14.304688 213.449219 15.699219 214.828125 16.734375 214.144531 C 17.023438 213.964844 17.253906 213.773438 17.441406 213.535156 "/>
<g clip-path="url(#clip1)" clip-rule="nonzero">
<path style=" stroke:none;fill-rule:nonzero;fill:rgb(59.609985%,84.309387%,4.708862%);fill-opacity:1;" d="M 308.84375 169.824219 C 308.84375 237.457031 238.464844 328.082031 186.585938 328.082031 C 134.703125 328.082031 64.324219 237.457031 64.324219 169.824219 C 64.324219 102.1875 119.0625 47.359375 186.585938 47.359375 C 254.105469 47.359375 308.84375 102.1875 308.84375 169.824219 Z M 308.84375 169.824219 "/>
</g>
<g clip-path="url(#clip2)" clip-rule="nonzero">
<path style=" stroke:none;fill-rule:nonzero;fill:rgb(59.609985%,84.309387%,4.708862%);fill-opacity:1;" d="M 184.890625 47.371094 C 118.160156 48.292969 64.324219 102.761719 64.324219 169.824219 C 64.324219 237.21875 134.210938 327.449219 186.035156 328.078125 C 180.699219 263.09375 152.878906 220.804688 138.371094 138.175781 C 129.605469 88.238281 156.605469 61.53125 184.890625 47.371094 Z M 184.890625 47.371094 "/>
</g>
<path style=" stroke:none;fill-rule:nonzero;fill:rgb(12.939453%,12.548828%,13.328552%);fill-opacity:1;" d="M 259.3125 225.933594 C 277.1875 208.03125 282.789062 184.613281 271.824219 173.628906 C 260.855469 162.640625 237.476562 168.25 219.601562 186.152344 C 201.726562 204.058594 196.125 227.480469 207.089844 238.464844 C 218.058594 249.449219 241.4375 243.839844 259.3125 225.933594 Z M 259.3125 225.933594 "/>
<path style=" stroke:none;fill-rule:nonzero;fill:rgb(12.939453%,12.548828%,13.328552%);fill-opacity:1;" d="M 113.855469 225.9375 C 131.730469 243.84375 155.109375 249.453125 166.078125 238.464844 C 177.042969 227.480469 171.445312 204.0625 153.570312 186.160156 C 135.695312 168.253906 112.316406 162.644531 101.347656 173.628906 C 90.382812 184.613281 95.980469 208.035156 113.855469 225.9375 Z M 113.855469 225.9375 "/>
<path style=" stroke:none;fill-rule:nonzero;fill:rgb(12.939453%,12.548828%,13.328552%);fill-opacity:1;" d="M 186.585938 268.289062 C 181.109375 268.289062 175.636719 266.511719 171.070312 262.964844 C 169.222656 261.53125 168.890625 258.867188 170.320312 257.019531 C 171.75 255.171875 174.40625 254.835938 176.253906 256.269531 C 182.335938 260.996094 190.832031 260.996094 196.914062 256.269531 C 198.757812 254.835938 201.417969 255.171875 202.847656 257.019531 C 204.28125 258.867188 203.945312 261.53125 202.097656 262.964844 C 197.53125 266.511719 192.058594 268.289062 186.585938 268.289062 Z M 186.585938 268.289062 "/>
<path style=" stroke:none;fill-rule:nonzero;fill:rgb(0%,0%,0%);fill-opacity:1;" d="M 101.347656 173.628906 C 90.378906 184.613281 95.980469 208.035156 113.851562 225.9375 C 124.300781 236.402344 136.621094 242.664062 147.25 243.871094 C 146.042969 243.617188 128.382812 239.414062 123.449219 212.070312 C 118.398438 184.085938 153.570312 186.15625 153.570312 186.15625 C 135.695312 168.253906 112.3125 162.644531 101.347656 173.628906 Z M 101.347656 173.628906 "/>
<path style=" stroke:none;fill-rule:nonzero;fill:rgb(0%,0%,0%);fill-opacity:1;" d="M 271.824219 173.628906 C 282.789062 184.613281 277.1875 208.035156 259.3125 225.9375 C 248.871094 236.402344 236.550781 242.664062 225.917969 243.871094 C 227.125 243.617188 244.785156 239.414062 249.71875 212.070312 C 254.769531 184.085938 219.601562 186.15625 219.601562 186.15625 C 237.476562 168.253906 260.855469 162.644531 271.824219 173.628906 Z M 271.824219 173.628906 "/>
</g>
</svg>
